<svg width="457" height="77" viewBox="0 0 457 77" fill="none" xmlns="http://www.w3.org/2000/svg">
<path fill-rule="evenodd" clip-rule="evenodd" d="M1.70001 27V14C1.70001 10.4101 2.96922 7.34602 5.50762 4.80761C8.04603 2.2692 11.1102 1 14.7 1H442.7C446.29 1 449.354 2.2692 451.892 4.80761C454.431 7.34602 455.7 10.4101 455.7 14V63C455.7 66.5899 454.431 69.654 451.892 72.1924C449.354 74.7308 446.29 76 442.7 76H14.7C11.1102 76 8.04603 74.7308 5.50762 72.1924C2.96922 69.654 1.70001 66.5899 1.70001 63V27Z" stroke="white" stroke-width="2"/>
<path d="M157.18 47.928C156.214 47.928 155.346 47.76 154.576 47.424C153.82 47.074 153.225 46.598 152.791 45.996C152.357 45.38 152.133 44.673 152.119 43.875H154.156C154.226 44.561 154.506 45.142 154.996 45.618C155.5 46.08 156.228 46.311 157.18 46.311C158.09 46.311 158.804 46.087 159.322 45.639C159.854 45.177 160.12 44.589 160.12 43.875C160.12 43.315 159.966 42.86 159.658 42.51C159.35 42.16 158.965 41.894 158.503 41.712C158.041 41.53 157.418 41.334 156.634 41.124C155.668 40.872 154.891 40.62 154.303 40.368C153.729 40.116 153.232 39.724 152.812 39.192C152.406 38.646 152.203 37.918 152.203 37.008C152.203 36.21 152.406 35.503 152.812 34.887C153.218 34.271 153.785 33.795 154.513 33.459C155.255 33.123 156.102 32.955 157.054 32.955C158.426 32.955 159.546 33.298 160.414 33.984C161.296 34.67 161.793 35.58 161.905 36.714H159.805C159.735 36.154 159.441 35.664 158.923 35.244C158.405 34.81 157.719 34.593 156.865 34.593C156.067 34.593 155.416 34.803 154.912 35.223C154.408 35.629 154.156 36.203 154.156 36.945C154.156 37.477 154.303 37.911 154.597 38.247C154.905 38.583 155.276 38.842 155.71 39.024C156.158 39.192 156.781 39.388 157.579 39.612C158.545 39.878 159.322 40.144 159.91 40.41C160.498 40.662 161.002 41.061 161.422 41.607C161.842 42.139 162.052 42.867 162.052 43.791C162.052 44.505 161.863 45.177 161.485 45.807C161.107 46.437 160.547 46.948 159.805 47.34C159.063 47.732 158.188 47.928 157.18 47.928ZM165.851 34.404C165.487 34.404 165.179 34.278 164.927 34.026C164.675 33.774 164.549 33.466 164.549 33.102C164.549 32.738 164.675 32.43 164.927 32.178C165.179 31.926 165.487 31.8 165.851 31.8C166.201 31.8 166.495 31.926 166.733 32.178C166.985 32.43 167.111 32.738 167.111 33.102C167.111 33.466 166.985 33.774 166.733 34.026C166.495 34.278 166.201 34.404 165.851 34.404ZM166.775 36.273V47.781H164.864V36.273H166.775ZM174.778 36.084C175.772 36.084 176.64 36.301 177.382 36.735C178.138 37.169 178.698 37.715 179.062 38.373V36.273H180.994V48.033C180.994 49.083 180.77 50.014 180.322 50.826C179.874 51.652 179.23 52.296 178.39 52.758C177.564 53.22 176.598 53.451 175.492 53.451C173.98 53.451 172.72 53.094 171.712 52.38C170.704 51.666 170.109 50.693 169.927 49.461H171.817C172.027 50.161 172.461 50.721 173.119 51.141C173.777 51.575 174.568 51.792 175.492 51.792C176.542 51.792 177.396 51.463 178.054 50.805C178.726 50.147 179.062 49.223 179.062 48.033V45.618C178.684 46.29 178.124 46.85 177.382 47.298C176.64 47.746 175.772 47.97 174.778 47.97C173.756 47.97 172.825 47.718 171.985 47.214C171.159 46.71 170.508 46.003 170.032 45.093C169.556 44.183 169.318 43.147 169.318 41.985C169.318 40.809 169.556 39.78 170.032 38.898C170.508 38.002 171.159 37.309 171.985 36.819C172.825 36.329 173.756 36.084 174.778 36.084ZM179.062 42.006C179.062 41.138 178.887 40.382 178.537 39.738C178.187 39.094 177.711 38.604 177.109 38.268C176.521 37.918 175.87 37.743 175.156 37.743C174.442 37.743 173.791 37.911 173.203 38.247C172.615 38.583 172.146 39.073 171.796 39.717C171.446 40.361 171.271 41.117 171.271 41.985C171.271 42.867 171.446 43.637 171.796 44.295C172.146 44.939 172.615 45.436 173.203 45.786C173.791 46.122 174.442 46.29 175.156 46.29C175.87 46.29 176.521 46.122 177.109 45.786C177.711 45.436 178.187 44.939 178.537 44.295C178.887 43.637 179.062 42.874 179.062 42.006ZM189.831 36.063C191.231 36.063 192.365 36.49 193.233 37.344C194.101 38.184 194.535 39.402 194.535 40.998V47.781H192.645V41.271C192.645 40.123 192.358 39.248 191.784 38.646C191.21 38.03 190.426 37.722 189.432 37.722C188.424 37.722 187.619 38.037 187.017 38.667C186.429 39.297 186.135 40.214 186.135 41.418V47.781H184.224V36.273H186.135V37.911C186.513 37.323 187.024 36.868 187.668 36.546C188.326 36.224 189.047 36.063 189.831 36.063ZM213.461 36.273V47.781H211.55V46.08C211.186 46.668 210.675 47.13 210.017 47.466C209.373 47.788 208.659 47.949 207.875 47.949C206.979 47.949 206.174 47.767 205.46 47.403C204.746 47.025 204.179 46.465 203.759 45.723C203.353 44.981 203.15 44.078 203.15 43.014V36.273H205.04V42.762C205.04 43.896 205.327 44.771 205.901 45.387C206.475 45.989 207.259 46.29 208.253 46.29C209.275 46.29 210.08 45.975 210.668 45.345C211.256 44.715 211.55 43.798 211.55 42.594V36.273H213.461ZM218.598 38.394C218.976 37.736 219.536 37.19 220.278 36.756C221.034 36.308 221.909 36.084 222.903 36.084C223.925 36.084 224.849 36.329 225.675 36.819C226.515 37.309 227.173 38.002 227.649 38.898C228.125 39.78 228.363 40.809 228.363 41.985C228.363 43.147 228.125 44.183 227.649 45.093C227.173 46.003 226.515 46.71 225.675 47.214C224.849 47.718 223.925 47.97 222.903 47.97C221.923 47.97 221.055 47.753 220.299 47.319C219.557 46.871 218.99 46.318 218.598 45.66V53.241H216.687V36.273H218.598V38.394ZM226.41 41.985C226.41 41.117 226.235 40.361 225.885 39.717C225.535 39.073 225.059 38.583 224.457 38.247C223.869 37.911 223.218 37.743 222.504 37.743C221.804 37.743 221.153 37.918 220.551 38.268C219.963 38.604 219.487 39.101 219.123 39.759C218.773 40.403 218.598 41.152 218.598 42.006C218.598 42.874 218.773 43.637 219.123 44.295C219.487 44.939 219.963 45.436 220.551 45.786C221.153 46.122 221.804 46.29 222.504 46.29C223.218 46.29 223.869 46.122 224.457 45.786C225.059 45.436 225.535 44.939 225.885 44.295C226.235 43.637 226.41 42.867 226.41 41.985ZM251.808 36.273L248.217 47.781H246.243L243.471 38.646L240.699 47.781H238.725L235.113 36.273H237.066L239.712 45.933L242.568 36.273H244.521L247.314 45.954L249.918 36.273H251.808ZM254.691 34.404C254.327 34.404 254.019 34.278 253.767 34.026C253.515 33.774 253.389 33.466 253.389 33.102C253.389 32.738 253.515 32.43 253.767 32.178C254.019 31.926 254.327 31.8 254.691 31.8C255.041 31.8 255.335 31.926 255.573 32.178C255.825 32.43 255.951 32.738 255.951 33.102C255.951 33.466 255.825 33.774 255.573 34.026C255.335 34.278 255.041 34.404 254.691 34.404ZM255.615 36.273V47.781H253.704V36.273H255.615ZM261.203 37.848V44.631C261.203 45.191 261.322 45.59 261.56 45.828C261.798 46.052 262.211 46.164 262.799 46.164H264.206V47.781H262.484C261.42 47.781 260.622 47.536 260.09 47.046C259.558 46.556 259.292 45.751 259.292 44.631V37.848H257.801V36.273H259.292V33.375H261.203V36.273H264.206V37.848H261.203ZM272.233 36.063C273.101 36.063 273.885 36.252 274.585 36.63C275.285 36.994 275.831 37.547 276.223 38.289C276.629 39.031 276.832 39.934 276.832 40.998V47.781H274.942V41.271C274.942 40.123 274.655 39.248 274.081 38.646C273.507 38.03 272.723 37.722 271.729 37.722C270.721 37.722 269.916 38.037 269.314 38.667C268.726 39.297 268.432 40.214 268.432 41.418V47.781H266.521V32.241H268.432V37.911C268.81 37.323 269.328 36.868 269.986 36.546C270.658 36.224 271.407 36.063 272.233 36.063ZM296.641 37.386C296.235 36.532 295.647 35.874 294.877 35.412C294.107 34.936 293.211 34.698 292.189 34.698C291.167 34.698 290.243 34.936 289.417 35.412C288.605 35.874 287.961 36.546 287.485 37.428C287.023 38.296 286.792 39.304 286.792 40.452C286.792 41.6 287.023 42.608 287.485 43.476C287.961 44.344 288.605 45.016 289.417 45.492C290.243 45.954 291.167 46.185 292.189 46.185C293.617 46.185 294.793 45.758 295.717 44.904C296.641 44.05 297.18 42.895 297.334 41.439H291.496V39.885H299.371V41.355C299.259 42.559 298.881 43.665 298.237 44.673C297.593 45.667 296.746 46.458 295.696 47.046C294.646 47.62 293.477 47.907 292.189 47.907C290.831 47.907 289.592 47.592 288.472 46.962C287.352 46.318 286.463 45.429 285.805 44.295C285.161 43.161 284.839 41.88 284.839 40.452C284.839 39.024 285.161 37.743 285.805 36.609C286.463 35.461 287.352 34.572 288.472 33.942C289.592 33.298 290.831 32.976 292.189 32.976C293.743 32.976 295.115 33.361 296.305 34.131C297.509 34.901 298.384 35.986 298.93 37.386H296.641ZM306.916 47.97C305.838 47.97 304.858 47.725 303.976 47.235C303.108 46.745 302.422 46.052 301.918 45.156C301.428 44.246 301.183 43.196 301.183 42.006C301.183 40.83 301.435 39.794 301.939 38.898C302.457 37.988 303.157 37.295 304.039 36.819C304.921 36.329 305.908 36.084 307 36.084C308.092 36.084 309.079 36.329 309.961 36.819C310.843 37.295 311.536 37.981 312.04 38.877C312.558 39.773 312.817 40.816 312.817 42.006C312.817 43.196 312.551 44.246 312.019 45.156C311.501 46.052 310.794 46.745 309.898 47.235C309.002 47.725 308.008 47.97 306.916 47.97ZM306.916 46.29C307.602 46.29 308.246 46.129 308.848 45.807C309.45 45.485 309.933 45.002 310.297 44.358C310.675 43.714 310.864 42.93 310.864 42.006C310.864 41.082 310.682 40.298 310.318 39.654C309.954 39.01 309.478 38.534 308.89 38.226C308.302 37.904 307.665 37.743 306.979 37.743C306.279 37.743 305.635 37.904 305.047 38.226C304.473 38.534 304.011 39.01 303.661 39.654C303.311 40.298 303.136 41.082 303.136 42.006C303.136 42.944 303.304 43.735 303.64 44.379C303.99 45.023 304.452 45.506 305.026 45.828C305.6 46.136 306.23 46.29 306.916 46.29ZM320.349 47.97C319.271 47.97 318.291 47.725 317.409 47.235C316.541 46.745 315.855 46.052 315.351 45.156C314.861 44.246 314.616 43.196 314.616 42.006C314.616 40.83 314.868 39.794 315.372 38.898C315.89 37.988 316.59 37.295 317.472 36.819C318.354 36.329 319.341 36.084 320.433 36.084C321.525 36.084 322.512 36.329 323.394 36.819C324.276 37.295 324.969 37.981 325.473 38.877C325.991 39.773 326.25 40.816 326.25 42.006C326.25 43.196 325.984 44.246 325.452 45.156C324.934 46.052 324.227 46.745 323.331 47.235C322.435 47.725 321.441 47.97 320.349 47.97ZM320.349 46.29C321.035 46.29 321.679 46.129 322.281 45.807C322.883 45.485 323.366 45.002 323.73 44.358C324.108 43.714 324.297 42.93 324.297 42.006C324.297 41.082 324.115 40.298 323.751 39.654C323.387 39.01 322.911 38.534 322.323 38.226C321.735 37.904 321.098 37.743 320.412 37.743C319.712 37.743 319.068 37.904 318.48 38.226C317.906 38.534 317.444 39.01 317.094 39.654C316.744 40.298 316.569 41.082 316.569 42.006C316.569 42.944 316.737 43.735 317.073 44.379C317.423 45.023 317.885 45.506 318.459 45.828C319.033 46.136 319.663 46.29 320.349 46.29ZM333.509 36.084C334.503 36.084 335.371 36.301 336.113 36.735C336.869 37.169 337.429 37.715 337.793 38.373V36.273H339.725V48.033C339.725 49.083 339.501 50.014 339.053 50.826C338.605 51.652 337.961 52.296 337.121 52.758C336.295 53.22 335.329 53.451 334.223 53.451C332.711 53.451 331.451 53.094 330.443 52.38C329.435 51.666 328.84 50.693 328.658 49.461H330.548C330.758 50.161 331.192 50.721 331.85 51.141C332.508 51.575 333.299 51.792 334.223 51.792C335.273 51.792 336.127 51.463 336.785 50.805C337.457 50.147 337.793 49.223 337.793 48.033V45.618C337.415 46.29 336.855 46.85 336.113 47.298C335.371 47.746 334.503 47.97 333.509 47.97C332.487 47.97 331.556 47.718 330.716 47.214C329.89 46.71 329.239 46.003 328.763 45.093C328.287 44.183 328.049 43.147 328.049 41.985C328.049 40.809 328.287 39.78 328.763 38.898C329.239 38.002 329.89 37.309 330.716 36.819C331.556 36.329 332.487 36.084 333.509 36.084ZM337.793 42.006C337.793 41.138 337.618 40.382 337.268 39.738C336.918 39.094 336.442 38.604 335.84 38.268C335.252 37.918 334.601 37.743 333.887 37.743C333.173 37.743 332.522 37.911 331.934 38.247C331.346 38.583 330.877 39.073 330.527 39.717C330.177 40.361 330.002 41.117 330.002 41.985C330.002 42.867 330.177 43.637 330.527 44.295C330.877 44.939 331.346 45.436 331.934 45.786C332.522 46.122 333.173 46.29 333.887 46.29C334.601 46.29 335.252 46.122 335.84 45.786C336.442 45.436 336.918 44.939 337.268 44.295C337.618 43.637 337.793 42.874 337.793 42.006ZM344.865 32.241V47.781H342.954V32.241H344.865ZM358.622 41.586C358.622 41.95 358.601 42.335 358.559 42.741H349.361C349.431 43.875 349.816 44.764 350.516 45.408C351.23 46.038 352.091 46.353 353.099 46.353C353.925 46.353 354.611 46.164 355.157 45.786C355.717 45.394 356.109 44.876 356.333 44.232H358.391C358.083 45.338 357.467 46.241 356.543 46.941C355.619 47.627 354.471 47.97 353.099 47.97C352.007 47.97 351.027 47.725 350.159 47.235C349.305 46.745 348.633 46.052 348.143 45.156C347.653 44.246 347.408 43.196 347.408 42.006C347.408 40.816 347.646 39.773 348.122 38.877C348.598 37.981 349.263 37.295 350.117 36.819C350.985 36.329 351.979 36.084 353.099 36.084C354.191 36.084 355.157 36.322 355.997 36.798C356.837 37.274 357.481 37.932 357.929 38.772C358.391 39.598 358.622 40.536 358.622 41.586ZM356.648 41.187C356.648 40.459 356.487 39.836 356.165 39.318C355.843 38.786 355.402 38.387 354.842 38.121C354.296 37.841 353.687 37.701 353.015 37.701C352.049 37.701 351.223 38.009 350.537 38.625C349.865 39.241 349.48 40.095 349.382 41.187H356.648Z" fill="white"/>
<path fill-rule="evenodd" clip-rule="evenodd" d="M130.121 49.138C129.547 50.4733 128.839 51.7465 128.007 52.938C127.224 54.1323 126.311 55.2361 125.284 56.229C124.351 57.1618 123.102 57.7116 121.784 57.77C120.667 57.721 119.57 57.4589 118.552 56.998C117.453 56.5191 116.271 56.2579 115.072 56.229C113.841 56.2533 112.626 56.5143 111.494 56.998C110.516 57.4395 109.471 57.7142 108.402 57.811C107.043 57.7946 105.75 57.223 104.824 56.229C103.753 55.201 102.798 54.0585 101.976 52.822C100.693 50.9815 99.6788 48.9672 98.965 46.84C98.1506 44.55 97.7231 42.1404 97.7 39.71C97.6356 37.3262 98.2271 34.9705 99.4101 32.9C100.272 31.4044 101.505 30.1564 102.99 29.277C104.454 28.4009 106.125 27.9295 107.831 27.911C109.119 27.9873 110.385 28.2819 111.575 28.782C112.523 29.1996 113.522 29.493 114.545 29.655C115.673 29.4196 116.776 29.075 117.838 28.626C119.257 28.049 120.783 27.778 122.314 27.831C125.271 27.9075 128.023 29.3567 129.759 31.751C126.988 33.2238 125.287 36.1367 125.367 39.274C125.337 41.6525 126.33 43.9294 128.092 45.527C128.883 46.2837 129.806 46.889 130.815 47.313C130.596 47.9464 130.365 48.5537 130.121 49.135V49.138ZM122.535 19.287C122.509 21.3203 121.745 23.2749 120.385 24.7869C118.657 26.807 116.567 27.974 114.301 27.787C114.271 27.5399 114.255 27.291 114.255 27.042C114.324 24.9753 115.133 23.0023 116.536 21.483C117.314 20.6106 118.259 19.9024 119.315 19.4C120.304 18.8896 121.385 18.5835 122.494 18.5C122.522 18.761 122.536 19.0234 122.535 19.286V19.287Z" fill="white"/>
</svg>
