<svg width="489" height="54" viewBox="0 0 489 54" fill="none" xmlns="http://www.w3.org/2000/svg">
<path opacity="0.35" d="M0.700012 53H487.7" stroke="white" stroke-linecap="square"/>
<g opacity="0.5">
<path fill-rule="evenodd" clip-rule="evenodd" d="M458.004 22.5119C456.008 22.5335 454.088 21.7503 452.677 20.3391C451.266 18.9278 450.482 17.0076 450.504 15.0119C450.483 13.0163 451.266 11.0962 452.677 9.68503C454.088 8.27386 456.008 7.49054 458.004 7.5119C460 7.49026 461.92 8.2735 463.331 9.68472C464.742 11.096 465.526 13.0162 465.504 15.0119C465.526 17.0076 464.742 18.9279 463.331 20.3391C461.92 21.7503 460 22.5335 458.004 22.5119ZM458.004 10.5119C456.802 10.4843 455.642 10.9495 454.792 11.7995C453.942 12.6494 453.476 13.8102 453.504 15.0119C453.476 16.2136 453.942 17.3744 454.792 18.2243C455.642 19.0743 456.802 19.5396 458.004 19.5119C459.206 19.5396 460.366 19.0743 461.216 18.2243C462.066 17.3744 462.532 16.2136 462.504 15.0119C462.532 13.8102 462.066 12.6494 461.216 11.7995C460.366 10.9495 459.206 10.4843 458.004 10.5119Z" fill="white"/>
<path fill-rule="evenodd" clip-rule="evenodd" d="M465.432 30.31H457.855C449.485 30.31 442.7 23.5249 442.7 15.155C442.7 6.78513 449.485 0 457.855 0C466.225 0 473.01 6.78513 473.01 15.155V17.428C473.011 19.323 472 21.0749 470.359 22.023C468.717 22.971 466.695 22.9711 465.053 22.0232C463.412 21.0752 462.401 19.3233 462.402 17.4278V15.155H465.433V17.428C465.434 18.6828 466.451 19.6997 467.706 19.6998C468.961 19.6998 469.978 18.6829 469.979 17.428V15.155C469.979 8.45911 464.551 3.03101 457.855 3.03101C451.159 3.03101 445.731 8.45911 445.731 15.155C445.731 21.8509 451.159 27.279 457.855 27.279H465.432V30.31Z" fill="white"/>
</g>
<path d="M4.56401 14.183V19.542H10.406V21.267H4.56401V26.787H11.096V28.512H2.47101V12.458H11.096V14.183H4.56401ZM29.42 15.678C30.4013 15.678 31.2753 15.885 32.042 16.299C32.8087 16.6976 33.4143 17.3033 33.859 18.116C34.3037 18.9286 34.526 19.9176 34.526 21.083V28.512H32.456V21.382C32.456 20.1246 32.1417 19.1663 31.513 18.507C30.8997 17.8323 30.064 17.495 29.006 17.495C27.9173 17.495 27.051 17.8476 26.407 18.553C25.763 19.243 25.441 20.2473 25.441 21.566V28.512H23.371V21.382C23.371 20.1246 23.0567 19.1663 22.428 18.507C21.8147 17.8323 20.979 17.495 19.921 17.495C18.8323 17.495 17.966 17.8476 17.322 18.553C16.678 19.243 16.356 20.2473 16.356 21.566V28.512H14.263V15.908H16.356V17.725C16.77 17.0656 17.322 16.5596 18.012 16.207C18.7173 15.8543 19.4917 15.678 20.335 15.678C21.393 15.678 22.3283 15.9156 23.141 16.391C23.9537 16.8663 24.5593 17.564 24.958 18.484C25.3107 17.5946 25.8933 16.9046 26.706 16.414C27.5187 15.9233 28.4233 15.678 29.42 15.678ZM37.1773 22.164C37.1773 20.876 37.438 19.749 37.9593 18.783C38.4806 17.8016 39.1936 17.0426 40.0983 16.506C41.0183 15.9693 42.038 15.701 43.1573 15.701C44.2613 15.701 45.2196 15.9386 46.0323 16.414C46.845 16.8893 47.4506 17.4873 47.8493 18.208V15.908H49.9653V28.512H47.8493V26.166C47.4353 26.902 46.8143 27.5153 45.9863 28.006C45.1736 28.4813 44.223 28.719 43.1343 28.719C42.015 28.719 41.003 28.443 40.0983 27.891C39.1936 27.339 38.4806 26.5646 37.9593 25.568C37.438 24.5713 37.1773 23.4366 37.1773 22.164ZM47.8493 22.187C47.8493 21.2363 47.6576 20.4083 47.2743 19.703C46.891 18.9976 46.3696 18.461 45.7103 18.093C45.0663 17.7096 44.3533 17.518 43.5713 17.518C42.7893 17.518 42.0763 17.702 41.4323 18.07C40.7883 18.438 40.2746 18.9746 39.8913 19.68C39.508 20.3853 39.3163 21.2133 39.3163 22.164C39.3163 23.13 39.508 23.9733 39.8913 24.694C40.2746 25.3993 40.7883 25.9436 41.4323 26.327C42.0763 26.695 42.7893 26.879 43.5713 26.879C44.3533 26.879 45.0663 26.695 45.7103 26.327C46.3696 25.9436 46.891 25.3993 47.2743 24.694C47.6576 23.9733 47.8493 23.1376 47.8493 22.187ZM54.5833 13.861C54.1846 13.861 53.8473 13.723 53.5713 13.447C53.2953 13.171 53.1573 12.8336 53.1573 12.435C53.1573 12.0363 53.2953 11.699 53.5713 11.423C53.8473 11.147 54.1846 11.009 54.5833 11.009C54.9666 11.009 55.2886 11.147 55.5493 11.423C55.8253 11.699 55.9633 12.0363 55.9633 12.435C55.9633 12.8336 55.8253 13.171 55.5493 13.447C55.2886 13.723 54.9666 13.861 54.5833 13.861ZM55.5953 15.908V28.512H53.5023V15.908H55.5953ZM61.2554 11.492V28.512H59.1624V11.492H61.2554ZM80.4304 24.947H73.4384L72.1504 28.512H69.9424L75.7384 12.573H78.1534L83.9264 28.512H81.7184L80.4304 24.947ZM79.8324 23.245L76.9344 15.149L74.0364 23.245H79.8324ZM85.6705 22.164C85.6705 20.876 85.9311 19.749 86.4525 18.783C86.9738 17.8016 87.6868 17.0426 88.5915 16.506C89.5115 15.9693 90.5388 15.701 91.6735 15.701C92.6548 15.701 93.5671 15.931 94.4105 16.391C95.2538 16.8356 95.8978 17.426 96.3425 18.162V11.492H98.4585V28.512H96.3425V26.143C95.9285 26.8943 95.3151 27.5153 94.5025 28.006C93.6898 28.4813 92.7391 28.719 91.6505 28.719C90.5311 28.719 89.5115 28.443 88.5915 27.891C87.6868 27.339 86.9738 26.5646 86.4525 25.568C85.9311 24.5713 85.6705 23.4366 85.6705 22.164ZM96.3425 22.187C96.3425 21.2363 96.1508 20.4083 95.7675 19.703C95.3841 18.9976 94.8628 18.461 94.2035 18.093C93.5595 17.7096 92.8465 17.518 92.0645 17.518C91.2825 17.518 90.5695 17.702 89.9255 18.07C89.2815 18.438 88.7678 18.9746 88.3845 19.68C88.0011 20.3853 87.8095 21.2133 87.8095 22.164C87.8095 23.13 88.0011 23.9733 88.3845 24.694C88.7678 25.3993 89.2815 25.9436 89.9255 26.327C90.5695 26.695 91.2825 26.879 92.0645 26.879C92.8465 26.879 93.5595 26.695 94.2035 26.327C94.8628 25.9436 95.3841 25.3993 95.7675 24.694C96.1508 23.9733 96.3425 23.1376 96.3425 22.187ZM101.213 22.164C101.213 20.876 101.474 19.749 101.995 18.783C102.517 17.8016 103.23 17.0426 104.134 16.506C105.054 15.9693 106.082 15.701 107.216 15.701C108.198 15.701 109.11 15.931 109.953 16.391C110.797 16.8356 111.441 17.426 111.885 18.162V11.492H114.001V28.512H111.885V26.143C111.471 26.8943 110.858 27.5153 110.045 28.006C109.233 28.4813 108.282 28.719 107.193 28.719C106.074 28.719 105.054 28.443 104.134 27.891C103.23 27.339 102.517 26.5646 101.995 25.568C101.474 24.5713 101.213 23.4366 101.213 22.164ZM111.885 22.187C111.885 21.2363 111.694 20.4083 111.31 19.703C110.927 18.9976 110.406 18.461 109.746 18.093C109.102 17.7096 108.389 17.518 107.607 17.518C106.825 17.518 106.112 17.702 105.468 18.07C104.824 18.438 104.311 18.9746 103.927 19.68C103.544 20.3853 103.352 21.2133 103.352 22.164C103.352 23.13 103.544 23.9733 103.927 24.694C104.311 25.3993 104.824 25.9436 105.468 26.327C106.112 26.695 106.825 26.879 107.607 26.879C108.389 26.879 109.102 26.695 109.746 26.327C110.406 25.9436 110.927 25.3993 111.31 24.694C111.694 23.9733 111.885 23.1376 111.885 22.187ZM119.631 17.955C119.999 17.2343 120.521 16.6746 121.195 16.276C121.885 15.8773 122.721 15.678 123.702 15.678V17.84H123.15C120.804 17.84 119.631 19.1126 119.631 21.658V28.512H117.538V15.908H119.631V17.955ZM137.618 21.727C137.618 22.1256 137.595 22.5473 137.549 22.992H127.475C127.552 24.234 127.974 25.2076 128.74 25.913C129.522 26.603 130.465 26.948 131.569 26.948C132.474 26.948 133.225 26.741 133.823 26.327C134.437 25.8976 134.866 25.3303 135.111 24.625H137.365C137.028 25.8363 136.353 26.8253 135.341 27.592C134.329 28.3433 133.072 28.719 131.569 28.719C130.373 28.719 129.3 28.4506 128.349 27.914C127.414 27.3773 126.678 26.6183 126.141 25.637C125.605 24.6403 125.336 23.4903 125.336 22.187C125.336 20.8836 125.597 19.7413 126.118 18.76C126.64 17.7786 127.368 17.0273 128.303 16.506C129.254 15.9693 130.343 15.701 131.569 15.701C132.765 15.701 133.823 15.9616 134.743 16.483C135.663 17.0043 136.369 17.725 136.859 18.645C137.365 19.5496 137.618 20.577 137.618 21.727ZM135.456 21.29C135.456 20.4926 135.28 19.8103 134.927 19.243C134.575 18.6603 134.092 18.2233 133.478 17.932C132.88 17.6253 132.213 17.472 131.477 17.472C130.419 17.472 129.515 17.8093 128.763 18.484C128.027 19.1586 127.606 20.094 127.498 21.29H135.456ZM144.843 28.719C143.877 28.719 143.011 28.558 142.244 28.236C141.478 27.8986 140.872 27.4386 140.427 26.856C139.983 26.258 139.737 25.5756 139.691 24.809H141.853C141.915 25.4376 142.206 25.9513 142.727 26.35C143.264 26.7486 143.962 26.948 144.82 26.948C145.618 26.948 146.246 26.7716 146.706 26.419C147.166 26.0663 147.396 25.6216 147.396 25.085C147.396 24.533 147.151 24.1266 146.66 23.866C146.17 23.59 145.411 23.3216 144.383 23.061C143.448 22.8156 142.681 22.5703 142.083 22.325C141.501 22.0643 140.995 21.6886 140.565 21.198C140.151 20.692 139.944 20.0326 139.944 19.22C139.944 18.576 140.136 17.9856 140.519 17.449C140.903 16.9123 141.447 16.4906 142.152 16.184C142.858 15.862 143.663 15.701 144.567 15.701C145.963 15.701 147.09 16.0536 147.948 16.759C148.807 17.4643 149.267 18.4303 149.328 19.657H147.235C147.189 18.9976 146.921 18.4686 146.43 18.07C145.955 17.6713 145.311 17.472 144.498 17.472C143.747 17.472 143.149 17.633 142.704 17.955C142.26 18.277 142.037 18.6986 142.037 19.22C142.037 19.634 142.168 19.979 142.428 20.255C142.704 20.5156 143.042 20.7303 143.44 20.899C143.854 21.0523 144.422 21.2286 145.142 21.428C146.047 21.6733 146.783 21.9186 147.35 22.164C147.918 22.394 148.401 22.7466 148.799 23.222C149.213 23.6973 149.428 24.3183 149.443 25.085C149.443 25.775 149.252 26.396 148.868 26.948C148.485 27.5 147.941 27.937 147.235 28.259C146.545 28.5656 145.748 28.719 144.843 28.719ZM156.86 28.719C155.894 28.719 155.027 28.558 154.261 28.236C153.494 27.8986 152.888 27.4386 152.444 26.856C151.999 26.258 151.754 25.5756 151.708 24.809H153.87C153.931 25.4376 154.222 25.9513 154.744 26.35C155.28 26.7486 155.978 26.948 156.837 26.948C157.634 26.948 158.263 26.7716 158.723 26.419C159.183 26.0663 159.413 25.6216 159.413 25.085C159.413 24.533 159.167 24.1266 158.677 23.866C158.186 23.59 157.427 23.3216 156.4 23.061C155.464 22.8156 154.698 22.5703 154.1 22.325C153.517 22.0643 153.011 21.6886 152.582 21.198C152.168 20.692 151.961 20.0326 151.961 19.22C151.961 18.576 152.152 17.9856 152.536 17.449C152.919 16.9123 153.463 16.4906 154.169 16.184C154.874 15.862 155.679 15.701 156.584 15.701C157.979 15.701 159.106 16.0536 159.965 16.759C160.823 17.4643 161.283 18.4303 161.345 19.657H159.252C159.206 18.9976 158.937 18.4686 158.447 18.07C157.971 17.6713 157.327 17.472 156.515 17.472C155.763 17.472 155.165 17.633 154.721 17.955C154.276 18.277 154.054 18.6986 154.054 19.22C154.054 19.634 154.184 19.979 154.445 20.255C154.721 20.5156 155.058 20.7303 155.457 20.899C155.871 21.0523 156.438 21.2286 157.159 21.428C158.063 21.6733 158.799 21.9186 159.367 22.164C159.934 22.394 160.417 22.7466 160.816 23.222C161.23 23.6973 161.444 24.3183 161.46 25.085C161.46 25.775 161.268 26.396 160.885 26.948C160.501 27.5 159.957 27.937 159.252 28.259C158.562 28.5656 157.764 28.719 156.86 28.719Z" fill="white"/>
</svg>
