<svg width="457" height="77" viewBox="0 0 457 77" fill="none" xmlns="http://www.w3.org/2000/svg">
<path fill-rule="evenodd" clip-rule="evenodd" d="M1.20001 27V14C1.20001 10.4101 2.46922 7.34602 5.00762 4.80761C7.54603 2.2692 10.6102 1 14.2 1H442.2C445.79 1 448.854 2.2692 451.392 4.80761C453.931 7.34602 455.2 10.4101 455.2 14V63C455.2 66.5899 453.931 69.654 451.392 72.1924C448.854 74.7308 445.79 76 442.2 76H14.2C10.6102 76 7.54603 74.7308 5.00762 72.1924C2.46922 69.654 1.20001 66.5899 1.20001 63V27Z" stroke="white" stroke-width="2"/>
<path d="M163.976 47.2871C163.01 47.2871 162.142 47.1191 161.372 46.7831C160.616 46.4331 160.021 45.9571 159.587 45.3551C159.153 44.7391 158.929 44.0321 158.915 43.2341H160.952C161.022 43.9201 161.302 44.5011 161.792 44.9771C162.296 45.4391 163.024 45.6701 163.976 45.6701C164.886 45.6701 165.6 45.4461 166.118 44.9981C166.65 44.5361 166.916 43.9481 166.916 43.2341C166.916 42.6741 166.762 42.2191 166.454 41.8691C166.146 41.5191 165.761 41.2531 165.299 41.0711C164.837 40.8891 164.214 40.6931 163.43 40.4831C162.464 40.2311 161.687 39.9791 161.099 39.7271C160.525 39.4751 160.028 39.0831 159.608 38.5511C159.202 38.0051 158.999 37.2771 158.999 36.3671C158.999 35.5691 159.202 34.8621 159.608 34.2461C160.014 33.6301 160.581 33.1541 161.309 32.8181C162.051 32.4821 162.898 32.3141 163.85 32.3141C165.222 32.3141 166.342 32.6571 167.21 33.3431C168.092 34.0291 168.589 34.9391 168.701 36.0731H166.601C166.531 35.5131 166.237 35.0231 165.719 34.6031C165.201 34.1691 164.515 33.9521 163.661 33.9521C162.863 33.9521 162.212 34.1621 161.708 34.5821C161.204 34.9881 160.952 35.5621 160.952 36.3041C160.952 36.8361 161.099 37.2701 161.393 37.6061C161.701 37.9421 162.072 38.2011 162.506 38.3831C162.954 38.5511 163.577 38.7471 164.375 38.9711C165.341 39.2371 166.118 39.5031 166.706 39.7691C167.294 40.0211 167.798 40.4201 168.218 40.9661C168.638 41.4981 168.848 42.2261 168.848 43.1501C168.848 43.8641 168.659 44.5361 168.281 45.1661C167.903 45.7961 167.343 46.3071 166.601 46.6991C165.859 47.0911 164.984 47.2871 163.976 47.2871ZM172.647 33.7631C172.283 33.7631 171.975 33.6371 171.723 33.3851C171.471 33.1331 171.345 32.8251 171.345 32.4611C171.345 32.0971 171.471 31.7891 171.723 31.5371C171.975 31.2851 172.283 31.1591 172.647 31.1591C172.997 31.1591 173.291 31.2851 173.529 31.5371C173.781 31.7891 173.907 32.0971 173.907 32.4611C173.907 32.8251 173.781 33.1331 173.529 33.3851C173.291 33.6371 172.997 33.7631 172.647 33.7631ZM173.571 35.6321V47.1401H171.66V35.6321H173.571ZM181.574 35.4431C182.568 35.4431 183.436 35.6601 184.178 36.0941C184.934 36.5281 185.494 37.0741 185.858 37.7321V35.6321H187.79V47.3921C187.79 48.4421 187.566 49.3731 187.118 50.1851C186.67 51.0111 186.026 51.6551 185.186 52.1171C184.36 52.5791 183.394 52.8101 182.288 52.8101C180.776 52.8101 179.516 52.4531 178.508 51.7391C177.5 51.0251 176.905 50.0521 176.723 48.8201H178.613C178.823 49.5201 179.257 50.0801 179.915 50.5001C180.573 50.9341 181.364 51.1511 182.288 51.1511C183.338 51.1511 184.192 50.8221 184.85 50.1641C185.522 49.5061 185.858 48.5821 185.858 47.3921V44.9771C185.48 45.6491 184.92 46.2091 184.178 46.6571C183.436 47.1051 182.568 47.3291 181.574 47.3291C180.552 47.3291 179.621 47.0771 178.781 46.5731C177.955 46.0691 177.304 45.3621 176.828 44.4521C176.352 43.5421 176.114 42.5061 176.114 41.3441C176.114 40.1681 176.352 39.1391 176.828 38.2571C177.304 37.3611 177.955 36.6681 178.781 36.1781C179.621 35.6881 180.552 35.4431 181.574 35.4431ZM185.858 41.3651C185.858 40.4971 185.683 39.7411 185.333 39.0971C184.983 38.4531 184.507 37.9631 183.905 37.6271C183.317 37.2771 182.666 37.1021 181.952 37.1021C181.238 37.1021 180.587 37.2701 179.999 37.6061C179.411 37.9421 178.942 38.4321 178.592 39.0761C178.242 39.7201 178.067 40.4761 178.067 41.3441C178.067 42.2261 178.242 42.9961 178.592 43.6541C178.942 44.2981 179.411 44.7951 179.999 45.1451C180.587 45.4811 181.238 45.6491 181.952 45.6491C182.666 45.6491 183.317 45.4811 183.905 45.1451C184.507 44.7951 184.983 44.2981 185.333 43.6541C185.683 42.9961 185.858 42.2331 185.858 41.3651ZM196.627 35.4221C198.027 35.4221 199.161 35.8491 200.029 36.7031C200.897 37.5431 201.331 38.7611 201.331 40.3571V47.1401H199.441V40.6301C199.441 39.4821 199.154 38.6071 198.58 38.0051C198.006 37.3891 197.222 37.0811 196.228 37.0811C195.22 37.0811 194.415 37.3961 193.813 38.0261C193.225 38.6561 192.931 39.5731 192.931 40.7771V47.1401H191.02V35.6321H192.931V37.2701C193.309 36.6821 193.82 36.2271 194.464 35.9051C195.122 35.5831 195.843 35.4221 196.627 35.4221ZM220.257 35.6321V47.1401H218.346V45.4391C217.982 46.0271 217.471 46.4891 216.813 46.8251C216.169 47.1471 215.455 47.3081 214.671 47.3081C213.775 47.3081 212.97 47.1261 212.256 46.7621C211.542 46.3841 210.975 45.8241 210.555 45.0821C210.149 44.3401 209.946 43.4371 209.946 42.3731V35.6321H211.836V42.1211C211.836 43.2551 212.123 44.1301 212.697 44.7461C213.271 45.3481 214.055 45.6491 215.049 45.6491C216.071 45.6491 216.876 45.3341 217.464 44.7041C218.052 44.0741 218.346 43.1571 218.346 41.9531V35.6321H220.257ZM225.394 37.7531C225.772 37.0951 226.332 36.5491 227.074 36.1151C227.83 35.6671 228.705 35.4431 229.699 35.4431C230.721 35.4431 231.645 35.6881 232.471 36.1781C233.311 36.6681 233.969 37.3611 234.445 38.2571C234.921 39.1391 235.159 40.1681 235.159 41.3441C235.159 42.5061 234.921 43.5421 234.445 44.4521C233.969 45.3621 233.311 46.0691 232.471 46.5731C231.645 47.0771 230.721 47.3291 229.699 47.3291C228.719 47.3291 227.851 47.1121 227.095 46.6781C226.353 46.2301 225.786 45.6771 225.394 45.0191V52.6001H223.483V35.6321H225.394V37.7531ZM233.206 41.3441C233.206 40.4761 233.031 39.7201 232.681 39.0761C232.331 38.4321 231.855 37.9421 231.253 37.6061C230.665 37.2701 230.014 37.1021 229.3 37.1021C228.6 37.1021 227.949 37.2771 227.347 37.6271C226.759 37.9631 226.283 38.4601 225.919 39.1181C225.569 39.7621 225.394 40.5111 225.394 41.3651C225.394 42.2331 225.569 42.9961 225.919 43.6541C226.283 44.2981 226.759 44.7951 227.347 45.1451C227.949 45.4811 228.6 45.6491 229.3 45.6491C230.014 45.6491 230.665 45.4811 231.253 45.1451C231.855 44.7951 232.331 44.2981 232.681 43.6541C233.031 42.9961 233.206 42.2261 233.206 41.3441ZM258.603 35.6321L255.012 47.1401H253.038L250.266 38.0051L247.494 47.1401H245.52L241.908 35.6321H243.861L246.507 45.2921L249.363 35.6321H251.316L254.109 45.3131L256.713 35.6321H258.603ZM261.487 33.7631C261.123 33.7631 260.815 33.6371 260.563 33.3851C260.311 33.1331 260.185 32.8251 260.185 32.4611C260.185 32.0971 260.311 31.7891 260.563 31.5371C260.815 31.2851 261.123 31.1591 261.487 31.1591C261.837 31.1591 262.131 31.2851 262.369 31.5371C262.621 31.7891 262.747 32.0971 262.747 32.4611C262.747 32.8251 262.621 33.1331 262.369 33.3851C262.131 33.6371 261.837 33.7631 261.487 33.7631ZM262.411 35.6321V47.1401H260.5V35.6321H262.411ZM267.999 37.2071V43.9901C267.999 44.5501 268.118 44.9491 268.356 45.1871C268.594 45.4111 269.007 45.5231 269.595 45.5231H271.002V47.1401H269.28C268.216 47.1401 267.418 46.8951 266.886 46.4051C266.354 45.9151 266.088 45.1101 266.088 43.9901V37.2071H264.597V35.6321H266.088V32.7341H267.999V35.6321H271.002V37.2071H267.999ZM279.029 35.4221C279.897 35.4221 280.681 35.6111 281.381 35.9891C282.081 36.3531 282.627 36.9061 283.019 37.6481C283.425 38.3901 283.628 39.2931 283.628 40.3571V47.1401H281.738V40.6301C281.738 39.4821 281.451 38.6071 280.877 38.0051C280.303 37.3891 279.519 37.0811 278.525 37.0811C277.517 37.0811 276.712 37.3961 276.11 38.0261C275.522 38.6561 275.228 39.5731 275.228 40.7771V47.1401H273.317V31.6001H275.228V37.2701C275.606 36.6821 276.124 36.2271 276.782 35.9051C277.454 35.5831 278.203 35.4221 279.029 35.4221ZM301.001 43.8851H294.617L293.441 47.1401H291.425L296.717 32.5871H298.922L304.193 47.1401H302.177L301.001 43.8851ZM300.455 42.3311L297.809 34.9391L295.163 42.3311H300.455ZM308.41 37.7531C308.788 37.0951 309.348 36.5491 310.09 36.1151C310.846 35.6671 311.721 35.4431 312.715 35.4431C313.737 35.4431 314.661 35.6881 315.487 36.1781C316.327 36.6681 316.985 37.3611 317.461 38.2571C317.937 39.1391 318.175 40.1681 318.175 41.3441C318.175 42.5061 317.937 43.5421 317.461 44.4521C316.985 45.3621 316.327 46.0691 315.487 46.5731C314.661 47.0771 313.737 47.3291 312.715 47.3291C311.735 47.3291 310.867 47.1121 310.111 46.6781C309.369 46.2301 308.802 45.6771 308.41 45.0191V52.6001H306.499V35.6321H308.41V37.7531ZM316.222 41.3441C316.222 40.4761 316.047 39.7201 315.697 39.0761C315.347 38.4321 314.871 37.9421 314.269 37.6061C313.681 37.2701 313.03 37.1021 312.316 37.1021C311.616 37.1021 310.965 37.2771 310.363 37.6271C309.775 37.9631 309.299 38.4601 308.935 39.1181C308.585 39.7621 308.41 40.5111 308.41 41.3651C308.41 42.2331 308.585 42.9961 308.935 43.6541C309.299 44.2981 309.775 44.7951 310.363 45.1451C310.965 45.4811 311.616 45.6491 312.316 45.6491C313.03 45.6491 313.681 45.4811 314.269 45.1451C314.871 44.7951 315.347 44.2981 315.697 43.6541C316.047 42.9961 316.222 42.2261 316.222 41.3441ZM322.601 37.7531C322.979 37.0951 323.539 36.5491 324.281 36.1151C325.037 35.6671 325.912 35.4431 326.906 35.4431C327.928 35.4431 328.852 35.6881 329.678 36.1781C330.518 36.6681 331.176 37.3611 331.652 38.2571C332.128 39.1391 332.366 40.1681 332.366 41.3441C332.366 42.5061 332.128 43.5421 331.652 44.4521C331.176 45.3621 330.518 46.0691 329.678 46.5731C328.852 47.0771 327.928 47.3291 326.906 47.3291C325.926 47.3291 325.058 47.1121 324.302 46.6781C323.56 46.2301 322.993 45.6771 322.601 45.0191V52.6001H320.69V35.6321H322.601V37.7531ZM330.413 41.3441C330.413 40.4761 330.238 39.7201 329.888 39.0761C329.538 38.4321 329.062 37.9421 328.46 37.6061C327.872 37.2701 327.221 37.1021 326.507 37.1021C325.807 37.1021 325.156 37.2771 324.554 37.6271C323.966 37.9631 323.49 38.4601 323.126 39.1181C322.776 39.7621 322.601 40.5111 322.601 41.3651C322.601 42.2331 322.776 42.9961 323.126 43.6541C323.49 44.2981 323.966 44.7951 324.554 45.1451C325.156 45.4811 325.807 45.6491 326.507 45.6491C327.221 45.6491 327.872 45.4811 328.46 45.1451C329.062 44.7951 329.538 44.2981 329.888 43.6541C330.238 42.9961 330.413 42.2261 330.413 41.3441ZM336.793 31.6001V47.1401H334.882V31.6001H336.793ZM350.55 40.9451C350.55 41.3091 350.529 41.6941 350.487 42.1001H341.289C341.359 43.2341 341.744 44.1231 342.444 44.7671C343.158 45.3971 344.019 45.7121 345.027 45.7121C345.853 45.7121 346.539 45.5231 347.085 45.1451C347.645 44.7531 348.037 44.2351 348.261 43.5911H350.319C350.011 44.6971 349.395 45.6001 348.471 46.3001C347.547 46.9861 346.399 47.3291 345.027 47.3291C343.935 47.3291 342.955 47.0841 342.087 46.5941C341.233 46.1041 340.561 45.4111 340.071 44.5151C339.581 43.6051 339.336 42.5551 339.336 41.3651C339.336 40.1751 339.574 39.1321 340.05 38.2361C340.526 37.3401 341.191 36.6541 342.045 36.1781C342.913 35.6881 343.907 35.4431 345.027 35.4431C346.119 35.4431 347.085 35.6811 347.925 36.1571C348.765 36.6331 349.409 37.2911 349.857 38.1311C350.319 38.9571 350.55 39.8951 350.55 40.9451ZM348.576 40.5461C348.576 39.8181 348.415 39.1951 348.093 38.6771C347.771 38.1451 347.33 37.7461 346.77 37.4801C346.224 37.2001 345.615 37.0601 344.943 37.0601C343.977 37.0601 343.151 37.3681 342.465 37.9841C341.793 38.6001 341.408 39.4541 341.31 40.5461H348.576Z" fill="white"/>
<path fill-rule="evenodd" clip-rule="evenodd" d="M121.039 20.5C111.968 20.4932 104.427 27.4831 103.747 36.5284C103.066 45.5737 109.477 53.613 118.447 54.963L118.447 42.434H114.157V37.876H118.448V34.843C118.448 29.821 120.894 27.618 125.068 27.618C126.257 27.6021 127.446 27.6742 128.624 27.834L128.624 31.813H125.777C124.006 31.813 123.387 33.492 123.387 35.386V37.877H128.579L127.879 42.434H123.386V55C132.415 53.7645 138.945 45.7464 138.327 36.6538C137.708 27.5612 130.153 20.5013 121.039 20.5H121.039Z" fill="#4267B2"/>
</svg>
