<svg width="457" height="77" viewBox="0 0 457 77" fill="none" xmlns="http://www.w3.org/2000/svg">
<path fill-rule="evenodd" clip-rule="evenodd" d="M1.70001 27V14C1.70001 10.4101 2.96922 7.34602 5.50762 4.80761C8.04603 2.2692 11.1102 1 14.7 1H442.7C446.29 1 449.354 2.2692 451.892 4.80761C454.431 7.34602 455.7 10.4101 455.7 14V63C455.7 66.5899 454.431 69.654 451.892 72.1924C449.354 74.7308 446.29 76 442.7 76H14.7C11.1102 76 8.04603 74.7308 5.50762 72.1924C2.96922 69.654 1.70001 66.5899 1.70001 63V27Z" stroke="white" stroke-width="2"/>
<path d="M144.585 47.2871C143.619 47.2871 142.751 47.1191 141.981 46.7831C141.225 46.4331 140.63 45.9571 140.196 45.3551C139.762 44.7391 139.538 44.0321 139.524 43.2341H141.561C141.631 43.9201 141.911 44.5011 142.401 44.9771C142.905 45.4391 143.633 45.6701 144.585 45.6701C145.495 45.6701 146.209 45.4461 146.727 44.9981C147.259 44.5361 147.525 43.9481 147.525 43.2341C147.525 42.6741 147.371 42.2191 147.063 41.8691C146.755 41.5191 146.37 41.2531 145.908 41.0711C145.446 40.8891 144.823 40.6931 144.039 40.4831C143.073 40.2311 142.296 39.9791 141.708 39.7271C141.134 39.4751 140.637 39.0831 140.217 38.5511C139.811 38.0051 139.608 37.2771 139.608 36.3671C139.608 35.5691 139.811 34.8621 140.217 34.2461C140.623 33.6301 141.19 33.1541 141.918 32.8181C142.66 32.4821 143.507 32.3141 144.459 32.3141C145.831 32.3141 146.951 32.6571 147.819 33.3431C148.701 34.0291 149.198 34.9391 149.31 36.0731H147.21C147.14 35.5131 146.846 35.0231 146.328 34.6031C145.81 34.1691 145.124 33.9521 144.27 33.9521C143.472 33.9521 142.821 34.1621 142.317 34.5821C141.813 34.9881 141.561 35.5621 141.561 36.3041C141.561 36.8361 141.708 37.2701 142.002 37.6061C142.31 37.9421 142.681 38.2011 143.115 38.3831C143.563 38.5511 144.186 38.7471 144.984 38.9711C145.95 39.2371 146.727 39.5031 147.315 39.7691C147.903 40.0211 148.407 40.4201 148.827 40.9661C149.247 41.4981 149.457 42.2261 149.457 43.1501C149.457 43.8641 149.268 44.5361 148.89 45.1661C148.512 45.7961 147.952 46.3071 147.21 46.6991C146.468 47.0911 145.593 47.2871 144.585 47.2871ZM153.256 33.7631C152.892 33.7631 152.584 33.6371 152.332 33.3851C152.08 33.1331 151.954 32.8251 151.954 32.4611C151.954 32.0971 152.08 31.7891 152.332 31.5371C152.584 31.2851 152.892 31.1591 153.256 31.1591C153.606 31.1591 153.9 31.2851 154.138 31.5371C154.39 31.7891 154.516 32.0971 154.516 32.4611C154.516 32.8251 154.39 33.1331 154.138 33.3851C153.9 33.6371 153.606 33.7631 153.256 33.7631ZM154.18 35.6321V47.1401H152.269V35.6321H154.18ZM162.183 35.4431C163.177 35.4431 164.045 35.6601 164.787 36.0941C165.543 36.5281 166.103 37.0741 166.467 37.7321V35.6321H168.399V47.3921C168.399 48.4421 168.175 49.3731 167.727 50.1851C167.279 51.0111 166.635 51.6551 165.795 52.1171C164.969 52.5791 164.003 52.8101 162.897 52.8101C161.385 52.8101 160.125 52.4531 159.117 51.7391C158.109 51.0251 157.514 50.0521 157.332 48.8201H159.222C159.432 49.5201 159.866 50.0801 160.524 50.5001C161.182 50.9341 161.973 51.1511 162.897 51.1511C163.947 51.1511 164.801 50.8221 165.459 50.1641C166.131 49.5061 166.467 48.5821 166.467 47.3921V44.9771C166.089 45.6491 165.529 46.2091 164.787 46.6571C164.045 47.1051 163.177 47.3291 162.183 47.3291C161.161 47.3291 160.23 47.0771 159.39 46.5731C158.564 46.0691 157.913 45.3621 157.437 44.4521C156.961 43.5421 156.723 42.5061 156.723 41.3441C156.723 40.1681 156.961 39.1391 157.437 38.2571C157.913 37.3611 158.564 36.6681 159.39 36.1781C160.23 35.6881 161.161 35.4431 162.183 35.4431ZM166.467 41.3651C166.467 40.4971 166.292 39.7411 165.942 39.0971C165.592 38.4531 165.116 37.9631 164.514 37.6271C163.926 37.2771 163.275 37.1021 162.561 37.1021C161.847 37.1021 161.196 37.2701 160.608 37.6061C160.02 37.9421 159.551 38.4321 159.201 39.0761C158.851 39.7201 158.676 40.4761 158.676 41.3441C158.676 42.2261 158.851 42.9961 159.201 43.6541C159.551 44.2981 160.02 44.7951 160.608 45.1451C161.196 45.4811 161.847 45.6491 162.561 45.6491C163.275 45.6491 163.926 45.4811 164.514 45.1451C165.116 44.7951 165.592 44.2981 165.942 43.6541C166.292 42.9961 166.467 42.2331 166.467 41.3651ZM177.236 35.4221C178.636 35.4221 179.77 35.8491 180.638 36.7031C181.506 37.5431 181.94 38.7611 181.94 40.3571V47.1401H180.05V40.6301C180.05 39.4821 179.763 38.6071 179.189 38.0051C178.615 37.3891 177.831 37.0811 176.837 37.0811C175.829 37.0811 175.024 37.3961 174.422 38.0261C173.834 38.6561 173.54 39.5731 173.54 40.7771V47.1401H171.629V35.6321H173.54V37.2701C173.918 36.6821 174.429 36.2271 175.073 35.9051C175.731 35.5831 176.452 35.4221 177.236 35.4221ZM200.866 35.6321V47.1401H198.955V45.4391C198.591 46.0271 198.08 46.4891 197.422 46.8251C196.778 47.1471 196.064 47.3081 195.28 47.3081C194.384 47.3081 193.579 47.1261 192.865 46.7621C192.151 46.3841 191.584 45.8241 191.164 45.0821C190.758 44.3401 190.555 43.4371 190.555 42.3731V35.6321H192.445V42.1211C192.445 43.2551 192.732 44.1301 193.306 44.7461C193.88 45.3481 194.664 45.6491 195.658 45.6491C196.68 45.6491 197.485 45.3341 198.073 44.7041C198.661 44.0741 198.955 43.1571 198.955 41.9531V35.6321H200.866ZM206.003 37.7531C206.381 37.0951 206.941 36.5491 207.683 36.1151C208.439 35.6671 209.314 35.4431 210.308 35.4431C211.33 35.4431 212.254 35.6881 213.08 36.1781C213.92 36.6681 214.578 37.3611 215.054 38.2571C215.53 39.1391 215.768 40.1681 215.768 41.3441C215.768 42.5061 215.53 43.5421 215.054 44.4521C214.578 45.3621 213.92 46.0691 213.08 46.5731C212.254 47.0771 211.33 47.3291 210.308 47.3291C209.328 47.3291 208.46 47.1121 207.704 46.6781C206.962 46.2301 206.395 45.6771 206.003 45.0191V52.6001H204.092V35.6321H206.003V37.7531ZM213.815 41.3441C213.815 40.4761 213.64 39.7201 213.29 39.0761C212.94 38.4321 212.464 37.9421 211.862 37.6061C211.274 37.2701 210.623 37.1021 209.909 37.1021C209.209 37.1021 208.558 37.2771 207.956 37.6271C207.368 37.9631 206.892 38.4601 206.528 39.1181C206.178 39.7621 206.003 40.5111 206.003 41.3651C206.003 42.2331 206.178 42.9961 206.528 43.6541C206.892 44.2981 207.368 44.7951 207.956 45.1451C208.558 45.4811 209.209 45.6491 209.909 45.6491C210.623 45.6491 211.274 45.4811 211.862 45.1451C212.464 44.7951 212.94 44.2981 213.29 43.6541C213.64 42.9961 213.815 42.2261 213.815 41.3441ZM239.213 35.6321L235.622 47.1401H233.648L230.876 38.0051L228.104 47.1401H226.13L222.518 35.6321H224.471L227.117 45.2921L229.973 35.6321H231.926L234.719 45.3131L237.323 35.6321H239.213ZM242.096 33.7631C241.732 33.7631 241.424 33.6371 241.172 33.3851C240.92 33.1331 240.794 32.8251 240.794 32.4611C240.794 32.0971 240.92 31.7891 241.172 31.5371C241.424 31.2851 241.732 31.1591 242.096 31.1591C242.446 31.1591 242.74 31.2851 242.978 31.5371C243.23 31.7891 243.356 32.0971 243.356 32.4611C243.356 32.8251 243.23 33.1331 242.978 33.3851C242.74 33.6371 242.446 33.7631 242.096 33.7631ZM243.02 35.6321V47.1401H241.109V35.6321H243.02ZM248.608 37.2071V43.9901C248.608 44.5501 248.727 44.9491 248.965 45.1871C249.203 45.4111 249.616 45.5231 250.204 45.5231H251.611V47.1401H249.889C248.825 47.1401 248.027 46.8951 247.495 46.4051C246.963 45.9151 246.697 45.1101 246.697 43.9901V37.2071H245.206V35.6321H246.697V32.7341H248.608V35.6321H251.611V37.2071H248.608ZM259.638 35.4221C260.506 35.4221 261.29 35.6111 261.99 35.9891C262.69 36.3531 263.236 36.9061 263.628 37.6481C264.034 38.3901 264.237 39.2931 264.237 40.3571V47.1401H262.347V40.6301C262.347 39.4821 262.06 38.6071 261.486 38.0051C260.912 37.3891 260.128 37.0811 259.134 37.0811C258.126 37.0811 257.321 37.3961 256.719 38.0261C256.131 38.6561 255.837 39.5731 255.837 40.7771V47.1401H253.926V31.6001H255.837V37.2701C256.215 36.6821 256.733 36.2271 257.391 35.9051C258.063 35.5831 258.812 35.4221 259.638 35.4221ZM281.232 32.5031V34.0571H274.869V38.9921H280.035V40.5461H274.869V47.1401H272.958V32.5031H281.232ZM282.826 41.3441C282.826 40.1681 283.064 39.1391 283.54 38.2571C284.016 37.3611 284.667 36.6681 285.493 36.1781C286.333 35.6881 287.264 35.4431 288.286 35.4431C289.294 35.4431 290.169 35.6601 290.911 36.0941C291.653 36.5281 292.206 37.0741 292.57 37.7321V35.6321H294.502V47.1401H292.57V44.9981C292.192 45.6701 291.625 46.2301 290.869 46.6781C290.127 47.1121 289.259 47.3291 288.265 47.3291C287.243 47.3291 286.319 47.0771 285.493 46.5731C284.667 46.0691 284.016 45.3621 283.54 44.4521C283.064 43.5421 282.826 42.5061 282.826 41.3441ZM292.57 41.3651C292.57 40.4971 292.395 39.7411 292.045 39.0971C291.695 38.4531 291.219 37.9631 290.617 37.6271C290.029 37.2771 289.378 37.1021 288.664 37.1021C287.95 37.1021 287.299 37.2701 286.711 37.6061C286.123 37.9421 285.654 38.4321 285.304 39.0761C284.954 39.7201 284.779 40.4761 284.779 41.3441C284.779 42.2261 284.954 42.9961 285.304 43.6541C285.654 44.2981 286.123 44.7951 286.711 45.1451C287.299 45.4811 287.95 45.6491 288.664 45.6491C289.378 45.6491 290.029 45.4811 290.617 45.1451C291.219 44.7951 291.695 44.2981 292.045 43.6541C292.395 42.9961 292.57 42.2331 292.57 41.3651ZM297.017 41.3651C297.017 40.1751 297.255 39.1391 297.731 38.2571C298.207 37.3611 298.865 36.6681 299.705 36.1781C300.559 35.6881 301.532 35.4431 302.624 35.4431C304.038 35.4431 305.2 35.7861 306.11 36.4721C307.034 37.1581 307.643 38.1101 307.937 39.3281H305.879C305.683 38.6281 305.298 38.0751 304.724 37.6691C304.164 37.2631 303.464 37.0601 302.624 37.0601C301.532 37.0601 300.65 37.4381 299.978 38.1941C299.306 38.9361 298.97 39.9931 298.97 41.3651C298.97 42.7511 299.306 43.8221 299.978 44.5781C300.65 45.3341 301.532 45.7121 302.624 45.7121C303.464 45.7121 304.164 45.5161 304.724 45.1241C305.284 44.7321 305.669 44.1721 305.879 43.4441H307.937C307.629 44.6201 307.013 45.5651 306.089 46.2791C305.165 46.9791 304.01 47.3291 302.624 47.3291C301.532 47.3291 300.559 47.0841 299.705 46.5941C298.865 46.1041 298.207 45.4111 297.731 44.5151C297.255 43.6191 297.017 42.5691 297.017 41.3651ZM320.987 40.9451C320.987 41.3091 320.966 41.6941 320.924 42.1001H311.726C311.796 43.2341 312.181 44.1231 312.881 44.7671C313.595 45.3971 314.456 45.7121 315.464 45.7121C316.29 45.7121 316.976 45.5231 317.522 45.1451C318.082 44.7531 318.474 44.2351 318.698 43.5911H320.756C320.448 44.6971 319.832 45.6001 318.908 46.3001C317.984 46.9861 316.836 47.3291 315.464 47.3291C314.372 47.3291 313.392 47.0841 312.524 46.5941C311.67 46.1041 310.998 45.4111 310.508 44.5151C310.018 43.6051 309.773 42.5551 309.773 41.3651C309.773 40.1751 310.011 39.1321 310.487 38.2361C310.963 37.3401 311.628 36.6541 312.482 36.1781C313.35 35.6881 314.344 35.4431 315.464 35.4431C316.556 35.4431 317.522 35.6811 318.362 36.1571C319.202 36.6331 319.846 37.2911 320.294 38.1311C320.756 38.9571 320.987 39.8951 320.987 40.9451ZM319.013 40.5461C319.013 39.8181 318.852 39.1951 318.53 38.6771C318.208 38.1451 317.767 37.7461 317.207 37.4801C316.661 37.2001 316.052 37.0601 315.38 37.0601C314.414 37.0601 313.588 37.3681 312.902 37.9841C312.23 38.6001 311.845 39.4541 311.747 40.5461H319.013ZM325.42 37.7741C325.812 37.0881 326.386 36.5281 327.142 36.0941C327.898 35.6601 328.759 35.4431 329.725 35.4431C330.761 35.4431 331.692 35.6881 332.518 36.1781C333.344 36.6681 333.995 37.3611 334.471 38.2571C334.947 39.1391 335.185 40.1681 335.185 41.3441C335.185 42.5061 334.947 43.5421 334.471 44.4521C333.995 45.3621 333.337 46.0691 332.497 46.5731C331.671 47.0771 330.747 47.3291 329.725 47.3291C328.731 47.3291 327.856 47.1121 327.1 46.6781C326.358 46.2441 325.798 45.6911 325.42 45.0191V47.1401H323.509V31.6001H325.42V37.7741ZM333.232 41.3441C333.232 40.4761 333.057 39.7201 332.707 39.0761C332.357 38.4321 331.881 37.9421 331.279 37.6061C330.691 37.2701 330.04 37.1021 329.326 37.1021C328.626 37.1021 327.975 37.2771 327.373 37.6271C326.785 37.9631 326.309 38.4601 325.945 39.1181C325.595 39.7621 325.42 40.5111 325.42 41.3651C325.42 42.2331 325.595 42.9961 325.945 43.6541C326.309 44.2981 326.785 44.7951 327.373 45.1451C327.975 45.4811 328.626 45.6491 329.326 45.6491C330.04 45.6491 330.691 45.4811 331.279 45.1451C331.881 44.7951 332.357 44.2981 332.707 43.6541C333.057 42.9961 333.232 42.2261 333.232 41.3441ZM342.72 47.3291C341.642 47.3291 340.662 47.0841 339.78 46.5941C338.912 46.1041 338.226 45.4111 337.722 44.5151C337.232 43.6051 336.987 42.5551 336.987 41.3651C336.987 40.1891 337.239 39.1531 337.743 38.2571C338.261 37.3471 338.961 36.6541 339.843 36.1781C340.725 35.6881 341.712 35.4431 342.804 35.4431C343.896 35.4431 344.883 35.6881 345.765 36.1781C346.647 36.6541 347.34 37.3401 347.844 38.2361C348.362 39.1321 348.621 40.1751 348.621 41.3651C348.621 42.5551 348.355 43.6051 347.823 44.5151C347.305 45.4111 346.598 46.1041 345.702 46.5941C344.806 47.0841 343.812 47.3291 342.72 47.3291ZM342.72 45.6491C343.406 45.6491 344.05 45.4881 344.652 45.1661C345.254 44.8441 345.737 44.3611 346.101 43.7171C346.479 43.0731 346.668 42.2891 346.668 41.3651C346.668 40.4411 346.486 39.6571 346.122 39.0131C345.758 38.3691 345.282 37.8931 344.694 37.5851C344.106 37.2631 343.469 37.1021 342.783 37.1021C342.083 37.1021 341.439 37.2631 340.851 37.5851C340.277 37.8931 339.815 38.3691 339.465 39.0131C339.115 39.6571 338.94 40.4411 338.94 41.3651C338.94 42.3031 339.108 43.0941 339.444 43.7381C339.794 44.3821 340.256 44.8651 340.83 45.1871C341.404 45.4951 342.034 45.6491 342.72 45.6491ZM356.152 47.3291C355.074 47.3291 354.094 47.0841 353.212 46.5941C352.344 46.1041 351.658 45.4111 351.154 44.5151C350.664 43.6051 350.419 42.5551 350.419 41.3651C350.419 40.1891 350.671 39.1531 351.175 38.2571C351.693 37.3471 352.393 36.6541 353.275 36.1781C354.157 35.6881 355.144 35.4431 356.236 35.4431C357.328 35.4431 358.315 35.6881 359.197 36.1781C360.079 36.6541 360.772 37.3401 361.276 38.2361C361.794 39.1321 362.053 40.1751 362.053 41.3651C362.053 42.5551 361.787 43.6051 361.255 44.5151C360.737 45.4111 360.03 46.1041 359.134 46.5941C358.238 47.0841 357.244 47.3291 356.152 47.3291ZM356.152 45.6491C356.838 45.6491 357.482 45.4881 358.084 45.1661C358.686 44.8441 359.169 44.3611 359.533 43.7171C359.911 43.0731 360.1 42.2891 360.1 41.3651C360.1 40.4411 359.918 39.6571 359.554 39.0131C359.19 38.3691 358.714 37.8931 358.126 37.5851C357.538 37.2631 356.901 37.1021 356.215 37.1021C355.515 37.1021 354.871 37.2631 354.283 37.5851C353.709 37.8931 353.247 38.3691 352.897 39.0131C352.547 39.6571 352.372 40.4411 352.372 41.3651C352.372 42.3031 352.54 43.0941 352.876 43.7381C353.226 44.3821 353.688 44.8651 354.262 45.1871C354.836 45.4951 355.466 45.6491 356.152 45.6491ZM370.992 47.1401L366.477 42.0581V47.1401H364.566V31.6001H366.477V40.7351L370.908 35.6321H373.575L368.157 41.3651L373.596 47.1401H370.992Z" fill="white"/>
<path fill-rule="evenodd" clip-rule="evenodd" d="M118.22 37.9908C118.221 36.8284 118.121 35.666 117.92 34.5189L101.798 34.5168V41.1009H111.033C110.651 43.2282 109.417 45.1069 107.615 46.3009L107.615 50.5729H113.125C116.528 47.2894 118.38 42.717 118.22 37.9908Z" fill="#4285F4"/>
<path fill-rule="evenodd" clip-rule="evenodd" d="M101.798 54.696C105.963 54.8129 110.017 53.3365 113.131 50.568L107.619 46.297C104.931 48.0165 101.601 48.4025 98.5902 47.3436C95.5799 46.2847 93.2248 43.8988 92.205 40.875H86.519V45.275C89.4219 51.0508 95.3337 54.696 101.798 54.696Z" fill="#34A853"/>
<path fill-rule="evenodd" clip-rule="evenodd" d="M92.198 40.8748C91.4819 38.7516 91.4819 36.452 92.198 34.3288V29.9248H86.519C84.0941 34.7556 84.0941 40.4481 86.519 45.2788L92.198 40.8748Z" fill="#FBBC04"/>
<path fill-rule="evenodd" clip-rule="evenodd" d="M101.798 27.267C104.236 27.2275 106.592 28.1481 108.357 29.83L113.238 24.949C110.142 22.0443 106.043 20.4504 101.798 20.5009C95.3329 20.4999 89.4203 24.1463 86.519 29.924L92.198 34.3239C93.5544 30.1564 97.4156 27.3165 101.798 27.2629V27.267Z" fill="#EA4335"/>
</svg>
