<svg width="489" height="51" viewBox="0 0 489 51" fill="none" xmlns="http://www.w3.org/2000/svg">
<path opacity="0.35" d="M0.700012 50H487.7" stroke="white" stroke-linecap="square"/>
<g opacity="0.5">
<path fill-rule="evenodd" clip-rule="evenodd" d="M458.2 27.5121C455.537 27.5304 452.911 26.886 450.559 25.6371C448.62 24.5832 446.889 23.1855 445.45 21.5121C443.885 19.727 442.619 17.7009 441.7 15.5121C442.621 13.3243 443.887 11.2986 445.45 9.51208C446.889 7.83868 448.62 6.44098 450.559 5.38708C452.911 4.13812 455.537 3.49377 458.2 3.51208C460.863 3.49377 463.489 4.13812 465.841 5.38708C467.78 6.44098 469.511 7.83868 470.95 9.51208C472.515 11.2972 473.781 13.3232 474.7 15.5121C473.779 17.6998 472.513 19.7256 470.95 21.5121C469.511 23.1855 467.78 24.5832 465.841 25.6371C463.489 26.886 460.863 27.5304 458.2 27.5121ZM458.2 6.51208C450.373 6.51208 446.353 12.8121 444.987 15.5171C446.338 18.2211 450.331 24.5121 458.2 24.5121C466.026 24.5121 470.048 18.2121 471.414 15.5061C470.064 12.8031 466.073 6.51208 458.2 6.51208ZM458.2 21.5121C454.886 21.5121 452.2 18.8258 452.2 15.5121C452.2 12.1984 454.886 9.51208 458.2 9.51208C461.514 9.51208 464.2 12.1984 464.2 15.5121C464.197 18.8243 461.513 21.5087 458.2 21.5121H458.2ZM458.2 12.5121C456.543 12.5121 455.2 13.8552 455.2 15.5121C455.2 17.1689 456.543 18.5121 458.2 18.5121C459.857 18.5121 461.2 17.1689 461.2 15.5121C461.2 13.8552 459.857 12.5121 458.2 12.5121Z" fill="white"/>
</g>
<path d="M13.189 14.173C13.189 15.507 12.729 16.6186 11.809 17.508C10.9043 18.382 9.51668 18.819 7.64601 18.819H4.56401V25.512H2.47101V9.48096H7.64601C9.45535 9.48096 10.8277 9.91796 11.763 10.792C12.7137 11.666 13.189 12.793 13.189 14.173ZM7.64601 17.094C8.81135 17.094 9.67001 16.841 10.222 16.335C10.774 15.829 11.05 15.1083 11.05 14.173C11.05 12.195 9.91535 11.206 7.64601 11.206H4.56401V17.094H7.64601ZM15.0083 19.164C15.0083 17.876 15.269 16.749 15.7903 15.783C16.3117 14.8016 17.0247 14.0426 17.9293 13.506C18.8493 12.9693 19.869 12.701 20.9883 12.701C22.0923 12.701 23.0507 12.9386 23.8633 13.414C24.676 13.8893 25.2817 14.4873 25.6803 15.208V12.908H27.7963V25.512H25.6803V23.166C25.2663 23.902 24.6453 24.5153 23.8173 25.006C23.0047 25.4813 22.054 25.719 20.9653 25.719C19.846 25.719 18.834 25.443 17.9293 24.891C17.0247 24.339 16.3117 23.5646 15.7903 22.568C15.269 21.5713 15.0083 20.4366 15.0083 19.164ZM25.6803 19.187C25.6803 18.2363 25.4887 17.4083 25.1053 16.703C24.722 15.9976 24.2007 15.461 23.5413 15.093C22.8973 14.7096 22.1843 14.518 21.4023 14.518C20.6203 14.518 19.9073 14.702 19.2633 15.07C18.6193 15.438 18.1057 15.9746 17.7223 16.68C17.339 17.3853 17.1473 18.2133 17.1473 19.164C17.1473 20.13 17.339 20.9733 17.7223 21.694C18.1057 22.3993 18.6193 22.9436 19.2633 23.327C19.9073 23.695 20.6203 23.879 21.4023 23.879C22.1843 23.879 22.8973 23.695 23.5413 23.327C24.2007 22.9436 24.722 22.3993 25.1053 21.694C25.4887 20.9733 25.6803 20.1376 25.6803 19.187ZM35.7953 25.719C34.8293 25.719 33.963 25.558 33.1963 25.236C32.4297 24.8986 31.824 24.4386 31.3793 23.856C30.9347 23.258 30.6893 22.5756 30.6433 21.809H32.8053C32.8667 22.4376 33.158 22.9513 33.6793 23.35C34.216 23.7486 34.9137 23.948 35.7723 23.948C36.5697 23.948 37.1983 23.7716 37.6583 23.419C38.1183 23.0663 38.3483 22.6216 38.3483 22.085C38.3483 21.533 38.103 21.1266 37.6123 20.866C37.1217 20.59 36.3627 20.3216 35.3353 20.061C34.4 19.8156 33.6333 19.5703 33.0353 19.325C32.4527 19.0643 31.9467 18.6886 31.5173 18.198C31.1033 17.692 30.8963 17.0326 30.8963 16.22C30.8963 15.576 31.088 14.9856 31.4713 14.449C31.8547 13.9123 32.399 13.4906 33.1043 13.184C33.8097 12.862 34.6147 12.701 35.5193 12.701C36.9147 12.701 38.0417 13.0536 38.9003 13.759C39.759 14.4643 40.219 15.4303 40.2803 16.657H38.1873C38.1413 15.9976 37.873 15.4686 37.3823 15.07C36.907 14.6713 36.263 14.472 35.4503 14.472C34.699 14.472 34.101 14.633 33.6563 14.955C33.2117 15.277 32.9893 15.6986 32.9893 16.22C32.9893 16.634 33.1197 16.979 33.3803 17.255C33.6563 17.5156 33.9937 17.7303 34.3923 17.899C34.8063 18.0523 35.3737 18.2286 36.0943 18.428C36.999 18.6733 37.735 18.9186 38.3023 19.164C38.8697 19.394 39.3527 19.7466 39.7513 20.222C40.1653 20.6973 40.38 21.3183 40.3953 22.085C40.3953 22.775 40.2037 23.396 39.8203 23.948C39.437 24.5 38.8927 24.937 38.1873 25.259C37.4973 25.5656 36.7 25.719 35.7953 25.719ZM47.8119 25.719C46.8459 25.719 45.9796 25.558 45.2129 25.236C44.4463 24.8986 43.8406 24.4386 43.3959 23.856C42.9513 23.258 42.7059 22.5756 42.6599 21.809H44.8219C44.8833 22.4376 45.1746 22.9513 45.6959 23.35C46.2326 23.7486 46.9303 23.948 47.7889 23.948C48.5863 23.948 49.2149 23.7716 49.6749 23.419C50.1349 23.0663 50.3649 22.6216 50.3649 22.085C50.3649 21.533 50.1196 21.1266 49.6289 20.866C49.1383 20.59 48.3793 20.3216 47.3519 20.061C46.4166 19.8156 45.6499 19.5703 45.0519 19.325C44.4693 19.0643 43.9633 18.6886 43.5339 18.198C43.1199 17.692 42.9129 17.0326 42.9129 16.22C42.9129 15.576 43.1046 14.9856 43.4879 14.449C43.8713 13.9123 44.4156 13.4906 45.1209 13.184C45.8263 12.862 46.6313 12.701 47.5359 12.701C48.9313 12.701 50.0583 13.0536 50.9169 13.759C51.7756 14.4643 52.2356 15.4303 52.2969 16.657H50.2039C50.1579 15.9976 49.8896 15.4686 49.3989 15.07C48.9236 14.6713 48.2796 14.472 47.4669 14.472C46.7156 14.472 46.1176 14.633 45.6729 14.955C45.2283 15.277 45.0059 15.6986 45.0059 16.22C45.0059 16.634 45.1363 16.979 45.3969 17.255C45.6729 17.5156 46.0103 17.7303 46.4089 17.899C46.8229 18.0523 47.3903 18.2286 48.1109 18.428C49.0156 18.6733 49.7516 18.9186 50.3189 19.164C50.8863 19.394 51.3693 19.7466 51.7679 20.222C52.1819 20.6973 52.3966 21.3183 52.4119 22.085C52.4119 22.775 52.2203 23.396 51.8369 23.948C51.4536 24.5 50.9093 24.937 50.2039 25.259C49.5139 25.5656 48.7166 25.719 47.8119 25.719ZM72.1565 12.908L68.2235 25.512H66.0615L63.0255 15.507L59.9895 25.512H57.8275L53.8715 12.908H56.0105L58.9085 23.488L62.0365 12.908H64.1755L67.2345 23.511L70.0865 12.908H72.1565ZM79.7307 25.719C78.55 25.719 77.4767 25.4506 76.5107 24.914C75.56 24.3773 74.8087 23.6183 74.2567 22.637C73.72 21.6403 73.4517 20.4903 73.4517 19.187C73.4517 17.899 73.7277 16.7643 74.2797 15.783C74.847 14.7863 75.6137 14.0273 76.5797 13.506C77.5457 12.9693 78.6267 12.701 79.8227 12.701C81.0187 12.701 82.0997 12.9693 83.0657 13.506C84.0317 14.0273 84.7907 14.7786 85.3427 15.76C85.91 16.7413 86.1937 17.8836 86.1937 19.187C86.1937 20.4903 85.9024 21.6403 85.3197 22.637C84.7524 23.6183 83.978 24.3773 82.9967 24.914C82.0154 25.4506 80.9267 25.719 79.7307 25.719ZM79.7307 23.879C80.482 23.879 81.1874 23.7026 81.8467 23.35C82.506 22.9973 83.035 22.4683 83.4337 21.763C83.8477 21.0576 84.0547 20.199 84.0547 19.187C84.0547 18.175 83.8554 17.3163 83.4567 16.611C83.058 15.9056 82.5367 15.3843 81.8927 15.047C81.2487 14.6943 80.551 14.518 79.7997 14.518C79.033 14.518 78.3277 14.6943 77.6837 15.047C77.055 15.3843 76.549 15.9056 76.1657 16.611C75.7824 17.3163 75.5907 18.175 75.5907 19.187C75.5907 20.2143 75.7747 21.0806 76.1427 21.786C76.526 22.4913 77.032 23.0203 77.6607 23.373C78.2894 23.7103 78.9794 23.879 79.7307 23.879ZM91.0386 14.955C91.4066 14.2343 91.928 13.6746 92.6026 13.276C93.2926 12.8773 94.1283 12.678 95.1096 12.678V14.84H94.5576C92.2116 14.84 91.0386 16.1126 91.0386 18.658V25.512H88.9456V12.908H91.0386V14.955ZM96.7437 19.164C96.7437 17.876 97.0044 16.749 97.5257 15.783C98.047 14.8016 98.76 14.0426 99.6647 13.506C100.585 12.9693 101.612 12.701 102.747 12.701C103.728 12.701 104.64 12.931 105.484 13.391C106.327 13.8356 106.971 14.426 107.416 15.162V8.49196H109.532V25.512H107.416V23.143C107.002 23.8943 106.388 24.5153 105.576 25.006C104.763 25.4813 103.812 25.719 102.724 25.719C101.604 25.719 100.585 25.443 99.6647 24.891C98.76 24.339 98.047 23.5646 97.5257 22.568C97.0044 21.5713 96.7437 20.4366 96.7437 19.164ZM107.416 19.187C107.416 18.2363 107.224 17.4083 106.841 16.703C106.457 15.9976 105.936 15.461 105.277 15.093C104.633 14.7096 103.92 14.518 103.138 14.518C102.356 14.518 101.643 14.702 100.999 15.07C100.355 15.438 99.841 15.9746 99.4577 16.68C99.0744 17.3853 98.8827 18.2133 98.8827 19.164C98.8827 20.13 99.0744 20.9733 99.4577 21.694C99.841 22.3993 100.355 22.9436 100.999 23.327C101.643 23.695 102.356 23.879 103.138 23.879C103.92 23.879 104.633 23.695 105.277 23.327C105.936 22.9436 106.457 22.3993 106.841 21.694C107.224 20.9733 107.416 20.1376 107.416 19.187Z" fill="white"/>
</svg>
