<svg width="489" height="53" viewBox="0 0 489 53" fill="none" xmlns="http://www.w3.org/2000/svg">
<path opacity="0.35" d="M0.700012 52H487.7" stroke="white" stroke-linecap="square"/>
<g opacity="0.5">
<path fill-rule="evenodd" clip-rule="evenodd" d="M458.152 15.6C460.094 15.6267 461.96 14.8531 463.314 13.461C464.706 12.1076 465.479 10.2411 465.453 8.29996C465.48 6.35849 464.706 4.49161 463.314 3.13797C460.463 0.287659 455.842 0.287659 452.991 3.13797C451.599 4.49152 450.825 6.35846 450.852 8.29996C450.825 10.2415 451.599 12.1085 452.991 13.462C454.345 14.8533 456.211 15.6265 458.152 15.6ZM454.247 4.39496C455.283 3.35886 456.688 2.77676 458.153 2.77676C459.617 2.77676 461.022 3.35886 462.058 4.39496C463.118 5.4144 463.704 6.82974 463.676 8.29996C463.705 9.77051 463.118 11.1863 462.058 12.206C461.022 13.2421 459.617 13.8242 458.153 13.8242C456.688 13.8242 455.283 13.2421 454.247 12.206C453.187 11.1866 452.6 9.77072 452.628 8.29996C452.6 6.82922 453.187 5.41339 454.247 4.39398V4.39496Z" fill="white"/>
<path d="M463.314 13.461L463.07 13.2099L463.063 13.217L463.314 13.461ZM465.453 8.29996L465.103 8.29515L465.103 8.30473L465.453 8.29996ZM463.314 3.13797L463.067 3.3855L463.07 3.38889L463.314 3.13797ZM452.991 3.13797L453.235 3.38894L453.238 3.38547L452.991 3.13797ZM450.852 8.29996L451.202 8.30478L451.202 8.29514L450.852 8.29996ZM452.991 13.462L453.242 13.2178L453.235 13.2111L452.991 13.462ZM454.247 4.39496H453.897V5.2402L454.495 4.64239L454.247 4.39496ZM462.058 4.39496L461.81 4.64245L461.815 4.6472L462.058 4.39496ZM463.676 8.29996L463.326 8.29324L463.326 8.30674L463.676 8.29996ZM462.058 12.206L461.815 11.9537L461.811 11.9585L462.058 12.206ZM454.247 12.206L454.495 11.9585L454.49 11.9536L454.247 12.206ZM452.628 8.29996L452.978 8.3067L452.978 8.29322L452.628 8.29996ZM454.247 4.39398H454.597V3.57206L454.004 4.14166L454.247 4.39398ZM458.147 15.9499C460.185 15.978 462.144 15.1661 463.565 13.705L463.063 13.217C461.777 14.5402 460.002 15.2754 458.157 15.25L458.147 15.9499ZM463.558 13.7119C465.019 12.2915 465.831 10.3326 465.803 8.29518L465.103 8.30473C465.128 10.1497 464.393 11.9237 463.07 13.21L463.558 13.7119ZM465.803 8.30476C465.831 6.26711 465.019 4.30774 463.558 2.88705L463.07 3.38889C464.393 4.67548 465.128 6.44987 465.103 8.29515L465.803 8.30476ZM463.561 2.89046C460.574 -0.0965041 455.731 -0.0965079 452.744 2.89047L453.238 3.38547C455.953 0.671825 460.352 0.671821 463.067 3.38548L463.561 2.89046ZM452.747 2.88703C451.286 4.30764 450.474 6.26708 450.502 8.30478L451.202 8.29514C451.177 6.44984 451.912 4.67539 453.235 3.38891L452.747 2.88703ZM450.502 8.29514C450.474 10.3329 451.286 12.2923 452.747 13.7129L453.235 13.2111C451.912 11.9246 451.177 10.1502 451.202 8.30478L450.502 8.29514ZM452.74 13.7061C454.161 15.1663 456.12 15.9777 458.157 15.9499L458.147 15.25C456.302 15.2752 454.528 14.5403 453.242 13.2179L452.74 13.7061ZM454.495 4.64239C455.465 3.67196 456.78 3.12676 458.153 3.12676V2.42676C456.595 2.42676 455.101 3.04575 453.999 4.14753L454.495 4.64239ZM458.153 3.12676C459.525 3.12676 460.84 3.67196 461.811 4.6424L462.306 4.14752C461.204 3.04575 459.71 2.42676 458.153 2.42676V3.12676ZM461.815 4.6472C462.805 5.59903 463.352 6.92052 463.326 8.29325L464.026 8.30667C464.056 6.73896 463.431 5.22976 462.301 4.14272L461.815 4.6472ZM463.326 8.30674C463.353 9.67976 462.805 11.0017 461.815 11.9537L462.301 12.4582C463.431 11.3709 464.056 9.86125 464.026 8.29317L463.326 8.30674ZM461.811 11.9585C460.84 12.929 459.525 13.4742 458.153 13.4742V14.1742C459.71 14.1742 461.204 13.5552 462.306 12.4534L461.811 11.9585ZM458.153 13.4742C456.78 13.4742 455.465 12.929 454.495 11.9585L453.999 12.4534C455.101 13.5552 456.595 14.1742 458.153 14.1742V13.4742ZM454.49 11.9536C453.499 11.0018 452.951 9.67992 452.978 8.3067L452.278 8.29322C452.248 9.86153 452.874 11.3713 454.004 12.4583L454.49 11.9536ZM452.978 8.29322C452.951 6.92003 453.499 5.5981 454.49 4.64631L454.004 4.14166C452.874 5.22868 452.248 6.73842 452.278 8.3067L452.978 8.29322ZM453.897 4.39398V4.39496H454.597V4.39398H453.897Z" fill="white"/>
<path fill-rule="evenodd" clip-rule="evenodd" d="M470.926 24.307C470.878 23.6648 470.796 23.0255 470.68 22.392C470.565 21.7404 470.408 21.097 470.209 20.466C470.008 19.8403 469.742 19.237 469.417 18.666C469.097 18.0922 468.695 17.568 468.224 17.11C467.727 16.6434 467.145 16.2776 466.509 16.0331C465.811 15.7627 465.068 15.6269 464.32 15.633C463.884 15.6789 463.471 15.8528 463.133 16.133C462.777 16.365 462.361 16.633 461.897 16.933C461.395 17.2315 460.857 17.4666 460.297 17.633C459.027 18.0545 457.655 18.0545 456.385 17.633C455.825 17.4668 455.287 17.2317 454.785 16.933C454.325 16.639 453.909 16.3711 453.548 16.133C453.211 15.8529 452.798 15.6789 452.362 15.633C451.614 15.6267 450.871 15.7625 450.173 16.0331C449.537 16.2775 448.955 16.6433 448.458 17.11C447.987 17.5678 447.585 18.0916 447.265 18.665C446.94 19.2361 446.674 19.8393 446.473 20.465C446.274 21.0957 446.117 21.7387 446.002 22.39C445.886 23.0238 445.803 23.6634 445.756 24.306C445.716 24.885 445.695 25.487 445.695 26.096C445.632 27.5197 446.175 28.9036 447.19 29.904C448.239 30.8606 449.624 31.3639 451.042 31.304H465.641C467.059 31.3637 468.444 30.8606 469.493 29.904C470.51 28.9046 471.055 27.5205 470.993 26.096C470.993 25.485 470.972 24.883 470.932 24.306L470.926 24.307ZM468.268 28.618C467.549 29.2608 466.604 29.5905 465.641 29.534H451.047C450.084 29.5907 449.139 29.2614 448.42 28.619C447.76 27.9518 447.417 27.0344 447.477 26.098C447.477 25.53 447.496 24.969 447.533 24.431C447.576 23.8524 447.65 23.2766 447.755 22.706C447.856 22.1309 447.994 21.563 448.169 21.006C448.333 20.4985 448.549 20.0092 448.813 19.546C449.048 19.1223 449.344 18.735 449.69 18.396C450.021 18.088 450.408 17.8473 450.831 17.687C451.278 17.5157 451.752 17.4243 452.231 17.417C452.293 17.45 452.404 17.517 452.583 17.63C452.948 17.868 453.369 18.139 453.834 18.437C454.463 18.8198 455.137 19.1221 455.841 19.337C457.465 19.8723 459.217 19.8723 460.841 19.337C461.546 19.1222 462.221 18.8198 462.85 18.437C463.326 18.137 463.735 17.869 464.1 17.631C464.279 17.514 464.39 17.451 464.452 17.418C464.931 17.4254 465.405 17.5168 465.852 17.688C466.275 17.8485 466.662 18.0892 466.993 18.397C467.339 18.7359 467.635 19.1233 467.87 19.547C468.134 20.0102 468.35 20.4995 468.514 21.007C468.689 21.564 468.827 22.1319 468.928 22.707C469.033 23.2776 469.107 23.8535 469.15 24.432C469.188 24.968 469.207 25.532 469.207 26.098C469.267 27.0345 468.924 27.9519 468.264 28.619L468.268 28.618Z" fill="white"/>
<path d="M470.926 24.307L470.577 24.333L470.605 24.7159L470.984 24.6522L470.926 24.307ZM470.68 22.392L470.335 22.4526L470.336 22.4551L470.68 22.392ZM470.209 20.466L470.543 20.3607L470.542 20.359L470.209 20.466ZM469.417 18.666L469.111 18.8365L469.113 18.8393L469.417 18.666ZM468.224 17.11L468.468 16.859L468.464 16.855L468.224 17.11ZM466.509 16.0331L466.383 16.3594L466.383 16.3597L466.509 16.0331ZM464.32 15.633L464.317 15.283L464.3 15.2832L464.283 15.2849L464.32 15.633ZM463.133 16.133L463.324 16.4262L463.341 16.4152L463.356 16.4024L463.133 16.133ZM461.897 16.933L462.076 17.2342L462.087 17.227L461.897 16.933ZM460.297 17.633L460.197 17.2973L460.187 17.3008L460.297 17.633ZM456.385 17.633L456.495 17.3007L456.485 17.2975L456.385 17.633ZM454.785 16.933L454.596 17.2281L454.606 17.2339L454.785 16.933ZM453.548 16.133L453.324 16.4023L453.339 16.4146L453.355 16.4252L453.548 16.133ZM452.362 15.633L452.399 15.2849L452.382 15.2832L452.365 15.283L452.362 15.633ZM450.173 16.0331L450.299 16.3597L450.3 16.3594L450.173 16.0331ZM448.458 17.11L448.218 16.855L448.214 16.859L448.458 17.11ZM447.265 18.665L447.569 18.8383L447.571 18.8356L447.265 18.665ZM446.473 20.465L446.14 20.3578L446.139 20.3597L446.473 20.465ZM446.002 22.39L446.346 22.4533L446.347 22.4508L446.002 22.39ZM445.756 24.306L445.407 24.2802L445.407 24.2819L445.756 24.306ZM445.695 26.096L446.045 26.1116L446.045 26.1038V26.096H445.695ZM447.19 29.904L446.944 30.1535L446.954 30.1626L447.19 29.904ZM451.042 31.304V30.954H451.035L451.027 30.9544L451.042 31.304ZM465.641 31.304L465.656 30.9544L465.648 30.954H465.641V31.304ZM469.493 29.904L469.729 30.1628L469.738 30.1537L469.493 29.904ZM470.993 26.096H470.643V26.1037L470.643 26.1113L470.993 26.096ZM470.932 24.306L471.281 24.2818L471.254 23.8968L470.874 23.9609L470.932 24.306ZM468.268 28.618L468.501 28.8789L468.186 28.2779L468.268 28.618ZM465.641 29.534L465.661 29.1846L465.651 29.184H465.641V29.534ZM451.047 29.534V29.184H451.037L451.026 29.1846L451.047 29.534ZM448.42 28.619L448.171 28.8651L448.179 28.8728L448.187 28.88L448.42 28.619ZM447.477 26.098L447.826 26.1203L447.827 26.1092V26.098H447.477ZM447.533 24.431L447.184 24.4051L447.184 24.407L447.533 24.431ZM447.755 22.706L448.099 22.7693L448.1 22.7664L447.755 22.706ZM448.169 21.006L447.836 20.8984L447.835 20.9011L448.169 21.006ZM448.813 19.546L449.117 19.7194L449.119 19.7159L448.813 19.546ZM449.69 18.396L449.451 18.1397L449.445 18.1459L449.69 18.396ZM450.831 17.687L450.955 18.0143L450.956 18.0139L450.831 17.687ZM452.231 17.417L452.395 17.108L452.316 17.0657L452.226 17.0671L452.231 17.417ZM452.583 17.63L452.774 17.3368L452.77 17.334L452.583 17.63ZM453.834 18.437L453.645 18.7318L453.652 18.736L453.834 18.437ZM455.841 19.337L455.951 19.0045L455.943 19.0023L455.841 19.337ZM460.841 19.337L460.739 19.0021L460.731 19.0046L460.841 19.337ZM462.85 18.437L463.032 18.7361L463.037 18.7331L462.85 18.437ZM464.1 17.631L464.291 17.9242L464.292 17.924L464.1 17.631ZM464.452 17.418L464.457 17.068L464.367 17.0666L464.288 17.1091L464.452 17.418ZM465.852 17.688L465.727 18.0149L465.728 18.0152L465.852 17.688ZM466.993 18.397L467.238 18.1467L467.231 18.1407L466.993 18.397ZM467.87 19.547L467.564 19.7168L467.566 19.7206L467.87 19.547ZM468.514 21.007L468.848 20.9021L468.847 20.8996L468.514 21.007ZM468.928 22.707L468.583 22.7673L468.584 22.7701L468.928 22.707ZM469.207 26.098H468.857V26.1092L468.858 26.1204L469.207 26.098ZM468.264 28.619L468.015 28.3728L467.148 29.2499L468.346 28.9591L468.264 28.619ZM471.275 24.2811C471.226 23.6263 471.143 22.9746 471.024 22.3289L470.336 22.4551C470.45 23.0763 470.53 23.7032 470.577 24.333L471.275 24.2811ZM471.025 22.3314C470.907 21.6646 470.746 21.0063 470.543 20.3607L469.875 20.5714C470.07 21.1877 470.223 21.8161 470.335 22.4526L471.025 22.3314ZM470.542 20.359C470.334 19.7102 470.059 19.0847 469.721 18.4927L469.113 18.8393C469.426 19.3893 469.682 19.9704 469.876 20.5731L470.542 20.359ZM469.723 18.4955C469.386 17.892 468.963 17.3408 468.468 16.8591L467.98 17.361C468.427 17.7953 468.808 18.2923 469.111 18.8365L469.723 18.4955ZM468.464 16.855C467.934 16.3573 467.313 15.9672 466.635 15.7064L466.383 16.3597C466.977 16.588 467.521 16.9295 467.984 17.3651L468.464 16.855ZM466.635 15.7067C465.896 15.4203 465.11 15.2766 464.317 15.283L464.323 15.983C465.027 15.9773 465.726 16.105 466.383 16.3594L466.635 15.7067ZM464.283 15.2849C463.778 15.338 463.3 15.5394 462.909 15.8637L463.356 16.4024C463.641 16.1663 463.989 16.0197 464.357 15.9811L464.283 15.2849ZM462.942 15.8398C462.587 16.0713 462.172 16.3386 461.707 16.6391L462.087 17.227C462.55 16.9274 462.967 16.6587 463.324 16.4262L462.942 15.8398ZM461.718 16.6321C461.241 16.9158 460.73 17.1393 460.197 17.2975L460.397 17.9685C460.985 17.7939 461.549 17.5471 462.076 17.234L461.718 16.6321ZM460.187 17.3008C458.988 17.6986 457.694 17.6986 456.495 17.3008L456.275 17.9652C457.616 18.4104 459.066 18.4104 460.407 17.9652L460.187 17.3008ZM456.485 17.2975C455.952 17.1395 455.441 16.916 454.964 16.6322L454.606 17.2339C455.133 17.5473 455.697 17.7941 456.285 17.9686L456.485 17.2975ZM454.974 16.6381C454.514 16.3444 454.1 16.0775 453.741 15.8408L453.355 16.4252C453.718 16.6647 454.136 16.9337 454.597 17.228L454.974 16.6381ZM453.772 15.8638C453.381 15.5395 452.903 15.3381 452.399 15.2849L452.325 15.9811C452.693 16.0198 453.04 16.1663 453.324 16.4023L453.772 15.8638ZM452.365 15.283C451.572 15.2764 450.786 15.4202 450.047 15.7067L450.3 16.3594C450.956 16.1048 451.655 15.9771 452.359 15.983L452.365 15.283ZM450.047 15.7064C449.369 15.9671 448.748 16.3572 448.218 16.855L448.698 17.365C449.161 16.9294 449.705 16.588 450.299 16.3597L450.047 15.7064ZM448.214 16.859C447.719 17.3404 447.296 17.8913 446.959 18.4944L447.571 18.8356C447.874 18.2919 448.255 17.7951 448.702 17.361L448.214 16.859ZM446.961 18.4917C446.624 19.0838 446.348 19.7092 446.14 20.3578L446.806 20.5722C447 19.9695 447.256 19.3884 447.569 18.8383L446.961 18.4917ZM446.139 20.3597C445.936 21.005 445.775 21.6629 445.657 22.3293L446.347 22.4508C446.459 21.8145 446.613 21.1864 446.807 20.5703L446.139 20.3597ZM445.658 22.3268C445.539 22.9729 445.455 23.625 445.407 24.2802L446.105 24.3318C446.152 23.7017 446.232 23.0747 446.346 22.4533L445.658 22.3268ZM445.407 24.2819C445.366 24.869 445.345 25.4791 445.345 26.096H446.045C446.045 25.495 446.066 24.901 446.105 24.3301L445.407 24.2819ZM445.345 26.0805C445.278 27.6032 445.859 29.0833 446.944 30.1533L447.436 29.6547C446.491 28.7239 445.986 27.4363 446.045 26.1116L445.345 26.0805ZM446.954 30.1626C448.071 31.1815 449.546 31.7174 451.057 31.6537L451.027 30.9544C449.701 31.0103 448.407 30.5398 447.426 29.6454L446.954 30.1626ZM451.042 31.654H465.641V30.954H451.042V31.654ZM465.626 31.6537C467.137 31.7173 468.612 31.1814 469.729 30.1626L469.257 29.6454C468.276 30.5397 466.982 31.0102 465.656 30.9544L465.626 31.6537ZM469.738 30.1537C470.826 29.0847 471.409 27.6044 471.343 26.0808L470.643 26.1113C470.701 27.4367 470.194 28.7245 469.248 29.6544L469.738 30.1537ZM471.343 26.096C471.343 25.4771 471.322 24.867 471.281 24.2818L470.583 24.3302C470.622 24.899 470.643 25.4929 470.643 26.096H471.343ZM470.874 23.9609L470.868 23.9619L470.984 24.6522L470.99 24.6512L470.874 23.9609ZM468.035 28.3571C467.385 28.9378 466.531 29.2356 465.661 29.1846L465.621 29.8834C466.676 29.9453 467.713 29.5838 468.501 28.8789L468.035 28.3571ZM465.641 29.184H451.047V29.884H465.641V29.184ZM451.026 29.1846C450.157 29.2359 449.303 28.9384 448.653 28.358L448.187 28.88C448.975 29.5845 450.012 29.9456 451.068 29.8834L451.026 29.1846ZM448.669 28.3729C448.079 27.7767 447.773 26.957 447.826 26.1203L447.128 26.0757C447.061 27.1118 447.441 28.1268 448.171 28.8651L448.669 28.3729ZM447.827 26.098C447.827 25.5377 447.846 24.9847 447.882 24.455L447.184 24.407C447.146 24.9533 447.127 25.5223 447.127 26.098H447.827ZM447.882 24.4569C447.924 23.8909 447.997 23.3276 448.099 22.7693L447.411 22.6427C447.304 23.2257 447.228 23.814 447.184 24.4051L447.882 24.4569ZM448.1 22.7664C448.198 22.2063 448.332 21.6533 448.503 21.1109L447.835 20.9011C447.655 21.4727 447.514 22.0555 447.41 22.6457L448.1 22.7664ZM448.502 21.1136C448.659 20.629 448.865 20.1618 449.117 19.7194L448.509 19.3726C448.233 19.8567 448.007 20.3681 447.836 20.8984L448.502 21.1136ZM449.119 19.7159C449.338 19.3218 449.613 18.9615 449.935 18.6461L449.445 18.1459C449.075 18.5085 448.759 18.9229 448.507 19.3761L449.119 19.7159ZM449.928 18.6522C450.226 18.3751 450.575 18.1585 450.955 18.0143L450.707 17.3597C450.242 17.5361 449.816 17.801 449.452 18.1398L449.928 18.6522ZM450.956 18.0139C451.365 17.8572 451.798 17.7737 452.236 17.767L452.226 17.0671C451.706 17.075 451.191 17.1742 450.706 17.3602L450.956 18.0139ZM452.067 17.726C452.115 17.752 452.216 17.812 452.396 17.926L452.77 17.334C452.592 17.222 452.471 17.1481 452.395 17.108L452.067 17.726ZM452.392 17.9232C452.758 18.162 453.18 18.4335 453.645 18.7317L454.023 18.1423C453.558 17.8445 453.138 17.5741 452.774 17.3368L452.392 17.9232ZM453.652 18.736C454.306 19.1339 455.007 19.4483 455.739 19.6718L455.943 19.0023C455.267 18.7959 454.62 18.5056 454.016 18.138L453.652 18.736ZM455.731 19.6694C457.426 20.2281 459.256 20.2282 460.951 19.6694L460.731 19.0046C459.179 19.5164 457.503 19.5164 455.951 19.0046L455.731 19.6694ZM460.943 19.6718C461.676 19.4484 462.377 19.1341 463.032 18.7361L462.668 18.138C462.064 18.5056 461.416 18.7959 460.739 19.0022L460.943 19.6718ZM463.037 18.7331C463.515 18.4313 463.927 18.1617 464.291 17.9242L463.909 17.3378C463.543 17.5763 463.137 17.8426 462.663 18.1409L463.037 18.7331ZM464.292 17.924C464.463 17.8118 464.565 17.7543 464.617 17.7269L464.288 17.1091C464.215 17.1477 464.095 17.2162 463.909 17.3381L464.292 17.924ZM464.447 17.768C464.885 17.7747 465.318 17.8583 465.727 18.0149L465.977 17.3612C465.492 17.1752 464.977 17.0761 464.457 17.068L464.447 17.768ZM465.728 18.0152C466.108 18.1596 466.457 18.3763 466.755 18.6533L467.231 18.1407C466.867 17.8021 466.441 17.5373 465.976 17.3608L465.728 18.0152ZM466.748 18.6472C467.071 18.9624 467.345 19.3227 467.564 19.7168L468.176 19.3772C467.925 18.9238 467.608 18.5093 467.238 18.1468L466.748 18.6472ZM467.566 19.7206C467.819 20.1627 468.025 20.6299 468.181 21.1145L468.847 20.8996C468.676 20.369 468.45 19.8576 468.174 19.3735L467.566 19.7206ZM468.18 21.112C468.351 21.6543 468.485 22.2073 468.583 22.7673L469.273 22.6467C469.17 22.0565 469.028 21.4737 468.848 20.9021L468.18 21.112ZM468.584 22.7701C468.686 23.3285 468.759 23.892 468.801 24.4581L469.499 24.406C469.455 23.815 469.379 23.2268 469.272 22.6439L468.584 22.7701ZM468.801 24.4568C468.838 24.984 468.857 25.5397 468.857 26.098H469.557C469.557 25.5244 469.538 24.9521 469.499 24.4073L468.801 24.4568ZM468.858 26.1204C468.911 26.9571 468.605 27.7768 468.015 28.3728L468.513 28.8651C469.243 28.1269 469.623 27.1118 469.556 26.0756L468.858 26.1204ZM468.346 28.9591L468.351 28.9581L468.186 28.2779L468.181 28.2788L468.346 28.9591Z" fill="white"/>
</g>
<path d="M4.51801 11.481V21.624C4.51801 23.05 4.86301 24.108 5.55301 24.798C6.25835 25.488 7.23201 25.833 8.47401 25.833C9.70068 25.833 10.659 25.488 11.349 24.798C12.0543 24.108 12.407 23.05 12.407 21.624V11.481H14.5V21.601C14.5 22.935 14.2317 24.062 13.695 24.982C13.1583 25.8866 12.43 26.5613 11.51 27.006C10.6053 27.4506 9.58568 27.673 8.45101 27.673C7.31635 27.673 6.28901 27.4506 5.36901 27.006C4.46435 26.5613 3.74368 25.8866 3.20701 24.982C2.68568 24.062 2.42501 22.935 2.42501 21.601V11.481H4.51801ZM22.4535 27.719C21.4875 27.719 20.6212 27.558 19.8545 27.236C19.0879 26.8986 18.4822 26.4386 18.0375 25.856C17.5929 25.258 17.3475 24.5756 17.3015 23.809H19.4635C19.5249 24.4376 19.8162 24.9513 20.3375 25.35C20.8742 25.7486 21.5719 25.948 22.4305 25.948C23.2279 25.948 23.8565 25.7716 24.3165 25.419C24.7765 25.0663 25.0065 24.6216 25.0065 24.085C25.0065 23.533 24.7612 23.1266 24.2705 22.866C23.7799 22.59 23.0209 22.3216 21.9935 22.061C21.0582 21.8156 20.2915 21.5703 19.6935 21.325C19.1109 21.0643 18.6049 20.6886 18.1755 20.198C17.7615 19.692 17.5545 19.0326 17.5545 18.22C17.5545 17.576 17.7462 16.9856 18.1295 16.449C18.5129 15.9123 19.0572 15.4906 19.7625 15.184C20.4679 14.862 21.2729 14.701 22.1775 14.701C23.5729 14.701 24.6999 15.0536 25.5585 15.759C26.4172 16.4643 26.8772 17.4303 26.9385 18.657H24.8455C24.7995 17.9976 24.5312 17.4686 24.0405 17.07C23.5652 16.6713 22.9212 16.472 22.1085 16.472C21.3572 16.472 20.7592 16.633 20.3145 16.955C19.8699 17.277 19.6475 17.6986 19.6475 18.22C19.6475 18.634 19.7779 18.979 20.0385 19.255C20.3145 19.5156 20.6519 19.7303 21.0505 19.899C21.4645 20.0523 22.0319 20.2286 22.7525 20.428C23.6572 20.6733 24.3932 20.9186 24.9605 21.164C25.5279 21.394 26.0109 21.7466 26.4095 22.222C26.8235 22.6973 27.0382 23.3183 27.0535 24.085C27.0535 24.775 26.8619 25.396 26.4785 25.948C26.0952 26.5 25.5509 26.937 24.8455 27.259C24.1555 27.5656 23.3582 27.719 22.4535 27.719ZM41.5081 20.727C41.5081 21.1256 41.4851 21.5473 41.4391 21.992H31.3651C31.4418 23.234 31.8635 24.2076 32.6301 24.913C33.4121 25.603 34.3551 25.948 35.4591 25.948C36.3638 25.948 37.1151 25.741 37.7131 25.327C38.3265 24.8976 38.7558 24.3303 39.0011 23.625H41.2551C40.9178 24.8363 40.2431 25.8253 39.2311 26.592C38.2191 27.3433 36.9618 27.719 35.4591 27.719C34.2631 27.719 33.1898 27.4506 32.2391 26.914C31.3038 26.3773 30.5678 25.6183 30.0311 24.637C29.4945 23.6403 29.2261 22.4903 29.2261 21.187C29.2261 19.8836 29.4868 18.7413 30.0081 17.76C30.5295 16.7786 31.2578 16.0273 32.1931 15.506C33.1438 14.9693 34.2325 14.701 35.4591 14.701C36.6551 14.701 37.7131 14.9616 38.6331 15.483C39.5531 16.0043 40.2585 16.725 40.7491 17.645C41.2551 18.5496 41.5081 19.577 41.5081 20.727ZM39.3461 20.29C39.3461 19.4926 39.1698 18.8103 38.8171 18.243C38.4645 17.6603 37.9815 17.2233 37.3681 16.932C36.7701 16.6253 36.1031 16.472 35.3671 16.472C34.3091 16.472 33.4045 16.8093 32.6531 17.484C31.9171 18.1586 31.4955 19.094 31.3881 20.29H39.3461ZM46.3638 16.955C46.7318 16.2343 47.2532 15.6746 47.9278 15.276C48.6178 14.8773 49.4535 14.678 50.4348 14.678V16.84H49.8828C47.5368 16.84 46.3638 18.1126 46.3638 20.658V27.512H44.2708V14.908H46.3638V16.955ZM58.9919 14.678C60.5252 14.678 61.7672 15.1456 62.7179 16.081C63.6686 17.001 64.1439 18.335 64.1439 20.083V27.512H62.0739V20.382C62.0739 19.1246 61.7596 18.1663 61.1309 17.507C60.5022 16.8323 59.6436 16.495 58.5549 16.495C57.4509 16.495 56.5692 16.84 55.9099 17.53C55.2659 18.22 54.9439 19.2243 54.9439 20.543V27.512H52.8509V14.908H54.9439V16.702C55.3579 16.058 55.9176 15.5596 56.6229 15.207C57.3436 14.8543 58.1332 14.678 58.9919 14.678ZM66.7808 21.164C66.7808 19.876 67.0415 18.749 67.5628 17.783C68.0841 16.8016 68.7971 16.0426 69.7018 15.506C70.6218 14.9693 71.6415 14.701 72.7608 14.701C73.8648 14.701 74.8231 14.9386 75.6358 15.414C76.4485 15.8893 77.0541 16.4873 77.4528 17.208V14.908H79.5688V27.512H77.4528V25.166C77.0388 25.902 76.4178 26.5153 75.5898 27.006C74.7771 27.4813 73.8265 27.719 72.7378 27.719C71.6185 27.719 70.6065 27.443 69.7018 26.891C68.7971 26.339 68.0841 25.5646 67.5628 24.568C67.0415 23.5713 66.7808 22.4366 66.7808 21.164ZM77.4528 21.187C77.4528 20.2363 77.2611 19.4083 76.8778 18.703C76.4945 17.9976 75.9731 17.461 75.3138 17.093C74.6698 16.7096 73.9568 16.518 73.1748 16.518C72.3928 16.518 71.6798 16.702 71.0358 17.07C70.3918 17.438 69.8781 17.9746 69.4948 18.68C69.1115 19.3853 68.9198 20.2133 68.9198 21.164C68.9198 22.13 69.1115 22.9733 69.4948 23.694C69.8781 24.3993 70.3918 24.9436 71.0358 25.327C71.6798 25.695 72.3928 25.879 73.1748 25.879C73.9568 25.879 74.6698 25.695 75.3138 25.327C75.9731 24.9436 76.4945 24.3993 76.8778 23.694C77.2611 22.9733 77.4528 22.1376 77.4528 21.187ZM98.2628 14.678C99.2441 14.678 100.118 14.885 100.885 15.299C101.651 15.6976 102.257 16.3033 102.702 17.116C103.146 17.9286 103.369 18.9176 103.369 20.083V27.512H101.299V20.382C101.299 19.1246 100.984 18.1663 100.356 17.507C99.7424 16.8323 98.9068 16.495 97.8488 16.495C96.7601 16.495 95.8938 16.8476 95.2498 17.553C94.6058 18.243 94.2838 19.2473 94.2838 20.566V27.512H92.2138V20.382C92.2138 19.1246 91.8994 18.1663 91.2708 17.507C90.6574 16.8323 89.8218 16.495 88.7638 16.495C87.6751 16.495 86.8088 16.8476 86.1648 17.553C85.5208 18.243 85.1988 19.2473 85.1988 20.566V27.512H83.1058V14.908H85.1988V16.725C85.6128 16.0656 86.1648 15.5596 86.8548 15.207C87.5601 14.8543 88.3344 14.678 89.1778 14.678C90.2358 14.678 91.1711 14.9156 91.9838 15.391C92.7964 15.8663 93.4021 16.564 93.8008 17.484C94.1534 16.5946 94.7361 15.9046 95.5488 15.414C96.3614 14.9233 97.2661 14.678 98.2628 14.678ZM118.302 20.727C118.302 21.1256 118.279 21.5473 118.233 21.992H108.159C108.236 23.234 108.657 24.2076 109.424 24.913C110.206 25.603 111.149 25.948 112.253 25.948C113.158 25.948 113.909 25.741 114.507 25.327C115.12 24.8976 115.55 24.3303 115.795 23.625H118.049C117.712 24.8363 117.037 25.8253 116.025 26.592C115.013 27.3433 113.756 27.719 112.253 27.719C111.057 27.719 109.984 27.4506 109.033 26.914C108.098 26.3773 107.362 25.6183 106.825 24.637C106.288 23.6403 106.02 22.4903 106.02 21.187C106.02 19.8836 106.281 18.7413 106.802 17.76C107.323 16.7786 108.052 16.0273 108.987 15.506C109.938 14.9693 111.026 14.701 112.253 14.701C113.449 14.701 114.507 14.9616 115.427 15.483C116.347 16.0043 117.052 16.725 117.543 17.645C118.049 18.5496 118.302 19.577 118.302 20.727ZM116.14 20.29C116.14 19.4926 115.964 18.8103 115.611 18.243C115.258 17.6603 114.775 17.2233 114.162 16.932C113.564 16.6253 112.897 16.472 112.161 16.472C111.103 16.472 110.198 16.8093 109.447 17.484C108.711 18.1586 108.289 19.094 108.182 20.29H116.14Z" fill="white"/>
</svg>
